%TF.GenerationSoftware,KiCad,Pcbnew,8.0.1*%
%TF.CreationDate,2024-11-19T12:42:29-08:00*%
%TF.ProjectId,DuplexUARTtoHalf,4475706c-6578-4554-9152-54746f48616c,rev?*%
%TF.SameCoordinates,Original*%
%TF.FileFunction,Legend,Top*%
%TF.FilePolarity,Positive*%
%FSLAX46Y46*%
G04 Gerber Fmt 4.6, Leading zero omitted, Abs format (unit mm)*
G04 Created by KiCad (PCBNEW 8.0.1) date 2024-11-19 12:42:29*
%MOMM*%
%LPD*%
G01*
G04 APERTURE LIST*
%ADD10C,0.150000*%
%ADD11C,0.120000*%
G04 APERTURE END LIST*
D10*
X172536779Y-86869819D02*
X172536779Y-85869819D01*
X172536779Y-85869819D02*
X172774874Y-85869819D01*
X172774874Y-85869819D02*
X172917731Y-85917438D01*
X172917731Y-85917438D02*
X173012969Y-86012676D01*
X173012969Y-86012676D02*
X173060588Y-86107914D01*
X173060588Y-86107914D02*
X173108207Y-86298390D01*
X173108207Y-86298390D02*
X173108207Y-86441247D01*
X173108207Y-86441247D02*
X173060588Y-86631723D01*
X173060588Y-86631723D02*
X173012969Y-86726961D01*
X173012969Y-86726961D02*
X172917731Y-86822200D01*
X172917731Y-86822200D02*
X172774874Y-86869819D01*
X172774874Y-86869819D02*
X172536779Y-86869819D01*
X172193922Y-88669819D02*
X172527255Y-89669819D01*
X172527255Y-89669819D02*
X172860588Y-88669819D01*
X173108207Y-89742200D02*
X173222493Y-89780295D01*
X173222493Y-89780295D02*
X173412969Y-89780295D01*
X173412969Y-89780295D02*
X173489160Y-89742200D01*
X173489160Y-89742200D02*
X173527255Y-89704104D01*
X173527255Y-89704104D02*
X173565350Y-89627914D01*
X173565350Y-89627914D02*
X173565350Y-89551723D01*
X173565350Y-89551723D02*
X173527255Y-89475533D01*
X173527255Y-89475533D02*
X173489160Y-89437438D01*
X173489160Y-89437438D02*
X173412969Y-89399342D01*
X173412969Y-89399342D02*
X173260588Y-89361247D01*
X173260588Y-89361247D02*
X173184398Y-89323152D01*
X173184398Y-89323152D02*
X173146303Y-89285057D01*
X173146303Y-89285057D02*
X173108207Y-89208866D01*
X173108207Y-89208866D02*
X173108207Y-89132676D01*
X173108207Y-89132676D02*
X173146303Y-89056485D01*
X173146303Y-89056485D02*
X173184398Y-89018390D01*
X173184398Y-89018390D02*
X173260588Y-88980295D01*
X173260588Y-88980295D02*
X173451065Y-88980295D01*
X173451065Y-88980295D02*
X173565350Y-89018390D01*
X163130180Y-102393922D02*
X162130180Y-102727255D01*
X162130180Y-102727255D02*
X163130180Y-103060588D01*
X162057800Y-103308207D02*
X162019704Y-103422493D01*
X162019704Y-103422493D02*
X162019704Y-103612969D01*
X162019704Y-103612969D02*
X162057800Y-103689160D01*
X162057800Y-103689160D02*
X162095895Y-103727255D01*
X162095895Y-103727255D02*
X162172085Y-103765350D01*
X162172085Y-103765350D02*
X162248276Y-103765350D01*
X162248276Y-103765350D02*
X162324466Y-103727255D01*
X162324466Y-103727255D02*
X162362561Y-103689160D01*
X162362561Y-103689160D02*
X162400657Y-103612969D01*
X162400657Y-103612969D02*
X162438752Y-103460588D01*
X162438752Y-103460588D02*
X162476847Y-103384398D01*
X162476847Y-103384398D02*
X162514942Y-103346303D01*
X162514942Y-103346303D02*
X162591133Y-103308207D01*
X162591133Y-103308207D02*
X162667323Y-103308207D01*
X162667323Y-103308207D02*
X162743514Y-103346303D01*
X162743514Y-103346303D02*
X162781609Y-103384398D01*
X162781609Y-103384398D02*
X162819704Y-103460588D01*
X162819704Y-103460588D02*
X162819704Y-103651065D01*
X162819704Y-103651065D02*
X162781609Y-103765350D01*
X141193922Y-90469819D02*
X141765350Y-90469819D01*
X141479636Y-91469819D02*
X141479636Y-90469819D01*
X142003446Y-90469819D02*
X142670112Y-91469819D01*
X142670112Y-90469819D02*
X142003446Y-91469819D01*
X141708207Y-88869819D02*
X141374874Y-88393628D01*
X141136779Y-88869819D02*
X141136779Y-87869819D01*
X141136779Y-87869819D02*
X141517731Y-87869819D01*
X141517731Y-87869819D02*
X141612969Y-87917438D01*
X141612969Y-87917438D02*
X141660588Y-87965057D01*
X141660588Y-87965057D02*
X141708207Y-88060295D01*
X141708207Y-88060295D02*
X141708207Y-88203152D01*
X141708207Y-88203152D02*
X141660588Y-88298390D01*
X141660588Y-88298390D02*
X141612969Y-88346009D01*
X141612969Y-88346009D02*
X141517731Y-88393628D01*
X141517731Y-88393628D02*
X141136779Y-88393628D01*
X142041541Y-87869819D02*
X142708207Y-88869819D01*
X142708207Y-87869819D02*
X142041541Y-88869819D01*
X141393922Y-85269819D02*
X141727255Y-86269819D01*
X141727255Y-86269819D02*
X142060588Y-85269819D01*
X142803446Y-86304104D02*
X142765350Y-86342200D01*
X142765350Y-86342200D02*
X142651065Y-86380295D01*
X142651065Y-86380295D02*
X142574874Y-86380295D01*
X142574874Y-86380295D02*
X142460588Y-86342200D01*
X142460588Y-86342200D02*
X142384398Y-86266009D01*
X142384398Y-86266009D02*
X142346303Y-86189819D01*
X142346303Y-86189819D02*
X142308207Y-86037438D01*
X142308207Y-86037438D02*
X142308207Y-85923152D01*
X142308207Y-85923152D02*
X142346303Y-85770771D01*
X142346303Y-85770771D02*
X142384398Y-85694580D01*
X142384398Y-85694580D02*
X142460588Y-85618390D01*
X142460588Y-85618390D02*
X142574874Y-85580295D01*
X142574874Y-85580295D02*
X142651065Y-85580295D01*
X142651065Y-85580295D02*
X142765350Y-85618390D01*
X142765350Y-85618390D02*
X142803446Y-85656485D01*
X141260588Y-82717438D02*
X141165350Y-82669819D01*
X141165350Y-82669819D02*
X141022493Y-82669819D01*
X141022493Y-82669819D02*
X140879636Y-82717438D01*
X140879636Y-82717438D02*
X140784398Y-82812676D01*
X140784398Y-82812676D02*
X140736779Y-82907914D01*
X140736779Y-82907914D02*
X140689160Y-83098390D01*
X140689160Y-83098390D02*
X140689160Y-83241247D01*
X140689160Y-83241247D02*
X140736779Y-83431723D01*
X140736779Y-83431723D02*
X140784398Y-83526961D01*
X140784398Y-83526961D02*
X140879636Y-83622200D01*
X140879636Y-83622200D02*
X141022493Y-83669819D01*
X141022493Y-83669819D02*
X141117731Y-83669819D01*
X141117731Y-83669819D02*
X141260588Y-83622200D01*
X141260588Y-83622200D02*
X141308207Y-83574580D01*
X141308207Y-83574580D02*
X141308207Y-83241247D01*
X141308207Y-83241247D02*
X141117731Y-83241247D01*
X141736779Y-83669819D02*
X141736779Y-82669819D01*
X141736779Y-82669819D02*
X142308207Y-83669819D01*
X142308207Y-83669819D02*
X142308207Y-82669819D01*
X142784398Y-83669819D02*
X142784398Y-82669819D01*
X142784398Y-82669819D02*
X143022493Y-82669819D01*
X143022493Y-82669819D02*
X143165350Y-82717438D01*
X143165350Y-82717438D02*
X143260588Y-82812676D01*
X143260588Y-82812676D02*
X143308207Y-82907914D01*
X143308207Y-82907914D02*
X143355826Y-83098390D01*
X143355826Y-83098390D02*
X143355826Y-83241247D01*
X143355826Y-83241247D02*
X143308207Y-83431723D01*
X143308207Y-83431723D02*
X143260588Y-83526961D01*
X143260588Y-83526961D02*
X143165350Y-83622200D01*
X143165350Y-83622200D02*
X143022493Y-83669819D01*
X143022493Y-83669819D02*
X142784398Y-83669819D01*
X160417561Y-102190588D02*
X160465180Y-102095350D01*
X160465180Y-102095350D02*
X160465180Y-101952493D01*
X160465180Y-101952493D02*
X160417561Y-101809636D01*
X160417561Y-101809636D02*
X160322323Y-101714398D01*
X160322323Y-101714398D02*
X160227085Y-101666779D01*
X160227085Y-101666779D02*
X160036609Y-101619160D01*
X160036609Y-101619160D02*
X159893752Y-101619160D01*
X159893752Y-101619160D02*
X159703276Y-101666779D01*
X159703276Y-101666779D02*
X159608038Y-101714398D01*
X159608038Y-101714398D02*
X159512800Y-101809636D01*
X159512800Y-101809636D02*
X159465180Y-101952493D01*
X159465180Y-101952493D02*
X159465180Y-102047731D01*
X159465180Y-102047731D02*
X159512800Y-102190588D01*
X159512800Y-102190588D02*
X159560419Y-102238207D01*
X159560419Y-102238207D02*
X159893752Y-102238207D01*
X159893752Y-102238207D02*
X159893752Y-102047731D01*
X159465180Y-102666779D02*
X160465180Y-102666779D01*
X160465180Y-102666779D02*
X159465180Y-103238207D01*
X159465180Y-103238207D02*
X160465180Y-103238207D01*
X159465180Y-103714398D02*
X160465180Y-103714398D01*
X160465180Y-103714398D02*
X160465180Y-103952493D01*
X160465180Y-103952493D02*
X160417561Y-104095350D01*
X160417561Y-104095350D02*
X160322323Y-104190588D01*
X160322323Y-104190588D02*
X160227085Y-104238207D01*
X160227085Y-104238207D02*
X160036609Y-104285826D01*
X160036609Y-104285826D02*
X159893752Y-104285826D01*
X159893752Y-104285826D02*
X159703276Y-104238207D01*
X159703276Y-104238207D02*
X159608038Y-104190588D01*
X159608038Y-104190588D02*
X159512800Y-104095350D01*
X159512800Y-104095350D02*
X159465180Y-103952493D01*
X159465180Y-103952493D02*
X159465180Y-103714398D01*
X172190588Y-91082438D02*
X172095350Y-91034819D01*
X172095350Y-91034819D02*
X171952493Y-91034819D01*
X171952493Y-91034819D02*
X171809636Y-91082438D01*
X171809636Y-91082438D02*
X171714398Y-91177676D01*
X171714398Y-91177676D02*
X171666779Y-91272914D01*
X171666779Y-91272914D02*
X171619160Y-91463390D01*
X171619160Y-91463390D02*
X171619160Y-91606247D01*
X171619160Y-91606247D02*
X171666779Y-91796723D01*
X171666779Y-91796723D02*
X171714398Y-91891961D01*
X171714398Y-91891961D02*
X171809636Y-91987200D01*
X171809636Y-91987200D02*
X171952493Y-92034819D01*
X171952493Y-92034819D02*
X172047731Y-92034819D01*
X172047731Y-92034819D02*
X172190588Y-91987200D01*
X172190588Y-91987200D02*
X172238207Y-91939580D01*
X172238207Y-91939580D02*
X172238207Y-91606247D01*
X172238207Y-91606247D02*
X172047731Y-91606247D01*
X172666779Y-92034819D02*
X172666779Y-91034819D01*
X172666779Y-91034819D02*
X173238207Y-92034819D01*
X173238207Y-92034819D02*
X173238207Y-91034819D01*
X173714398Y-92034819D02*
X173714398Y-91034819D01*
X173714398Y-91034819D02*
X173952493Y-91034819D01*
X173952493Y-91034819D02*
X174095350Y-91082438D01*
X174095350Y-91082438D02*
X174190588Y-91177676D01*
X174190588Y-91177676D02*
X174238207Y-91272914D01*
X174238207Y-91272914D02*
X174285826Y-91463390D01*
X174285826Y-91463390D02*
X174285826Y-91606247D01*
X174285826Y-91606247D02*
X174238207Y-91796723D01*
X174238207Y-91796723D02*
X174190588Y-91891961D01*
X174190588Y-91891961D02*
X174095350Y-91987200D01*
X174095350Y-91987200D02*
X173952493Y-92034819D01*
X173952493Y-92034819D02*
X173714398Y-92034819D01*
X153100595Y-74104819D02*
X153100595Y-74914342D01*
X153100595Y-74914342D02*
X153148214Y-75009580D01*
X153148214Y-75009580D02*
X153195833Y-75057200D01*
X153195833Y-75057200D02*
X153291071Y-75104819D01*
X153291071Y-75104819D02*
X153481547Y-75104819D01*
X153481547Y-75104819D02*
X153576785Y-75057200D01*
X153576785Y-75057200D02*
X153624404Y-75009580D01*
X153624404Y-75009580D02*
X153672023Y-74914342D01*
X153672023Y-74914342D02*
X153672023Y-74104819D01*
X154052976Y-74104819D02*
X154672023Y-74104819D01*
X154672023Y-74104819D02*
X154338690Y-74485771D01*
X154338690Y-74485771D02*
X154481547Y-74485771D01*
X154481547Y-74485771D02*
X154576785Y-74533390D01*
X154576785Y-74533390D02*
X154624404Y-74581009D01*
X154624404Y-74581009D02*
X154672023Y-74676247D01*
X154672023Y-74676247D02*
X154672023Y-74914342D01*
X154672023Y-74914342D02*
X154624404Y-75009580D01*
X154624404Y-75009580D02*
X154576785Y-75057200D01*
X154576785Y-75057200D02*
X154481547Y-75104819D01*
X154481547Y-75104819D02*
X154195833Y-75104819D01*
X154195833Y-75104819D02*
X154100595Y-75057200D01*
X154100595Y-75057200D02*
X154052976Y-75009580D01*
X155638095Y-82854819D02*
X155638095Y-83664342D01*
X155638095Y-83664342D02*
X155685714Y-83759580D01*
X155685714Y-83759580D02*
X155733333Y-83807200D01*
X155733333Y-83807200D02*
X155828571Y-83854819D01*
X155828571Y-83854819D02*
X156019047Y-83854819D01*
X156019047Y-83854819D02*
X156114285Y-83807200D01*
X156114285Y-83807200D02*
X156161904Y-83759580D01*
X156161904Y-83759580D02*
X156209523Y-83664342D01*
X156209523Y-83664342D02*
X156209523Y-82854819D01*
X156638095Y-82950057D02*
X156685714Y-82902438D01*
X156685714Y-82902438D02*
X156780952Y-82854819D01*
X156780952Y-82854819D02*
X157019047Y-82854819D01*
X157019047Y-82854819D02*
X157114285Y-82902438D01*
X157114285Y-82902438D02*
X157161904Y-82950057D01*
X157161904Y-82950057D02*
X157209523Y-83045295D01*
X157209523Y-83045295D02*
X157209523Y-83140533D01*
X157209523Y-83140533D02*
X157161904Y-83283390D01*
X157161904Y-83283390D02*
X156590476Y-83854819D01*
X156590476Y-83854819D02*
X157209523Y-83854819D01*
X158638095Y-89254819D02*
X158638095Y-90064342D01*
X158638095Y-90064342D02*
X158685714Y-90159580D01*
X158685714Y-90159580D02*
X158733333Y-90207200D01*
X158733333Y-90207200D02*
X158828571Y-90254819D01*
X158828571Y-90254819D02*
X159019047Y-90254819D01*
X159019047Y-90254819D02*
X159114285Y-90207200D01*
X159114285Y-90207200D02*
X159161904Y-90159580D01*
X159161904Y-90159580D02*
X159209523Y-90064342D01*
X159209523Y-90064342D02*
X159209523Y-89254819D01*
X160209523Y-90254819D02*
X159638095Y-90254819D01*
X159923809Y-90254819D02*
X159923809Y-89254819D01*
X159923809Y-89254819D02*
X159828571Y-89397676D01*
X159828571Y-89397676D02*
X159733333Y-89492914D01*
X159733333Y-89492914D02*
X159638095Y-89540533D01*
X156957142Y-73654819D02*
X156623809Y-73178628D01*
X156385714Y-73654819D02*
X156385714Y-72654819D01*
X156385714Y-72654819D02*
X156766666Y-72654819D01*
X156766666Y-72654819D02*
X156861904Y-72702438D01*
X156861904Y-72702438D02*
X156909523Y-72750057D01*
X156909523Y-72750057D02*
X156957142Y-72845295D01*
X156957142Y-72845295D02*
X156957142Y-72988152D01*
X156957142Y-72988152D02*
X156909523Y-73083390D01*
X156909523Y-73083390D02*
X156861904Y-73131009D01*
X156861904Y-73131009D02*
X156766666Y-73178628D01*
X156766666Y-73178628D02*
X156385714Y-73178628D01*
X157909523Y-73654819D02*
X157338095Y-73654819D01*
X157623809Y-73654819D02*
X157623809Y-72654819D01*
X157623809Y-72654819D02*
X157528571Y-72797676D01*
X157528571Y-72797676D02*
X157433333Y-72892914D01*
X157433333Y-72892914D02*
X157338095Y-72940533D01*
X158528571Y-72654819D02*
X158623809Y-72654819D01*
X158623809Y-72654819D02*
X158719047Y-72702438D01*
X158719047Y-72702438D02*
X158766666Y-72750057D01*
X158766666Y-72750057D02*
X158814285Y-72845295D01*
X158814285Y-72845295D02*
X158861904Y-73035771D01*
X158861904Y-73035771D02*
X158861904Y-73273866D01*
X158861904Y-73273866D02*
X158814285Y-73464342D01*
X158814285Y-73464342D02*
X158766666Y-73559580D01*
X158766666Y-73559580D02*
X158719047Y-73607200D01*
X158719047Y-73607200D02*
X158623809Y-73654819D01*
X158623809Y-73654819D02*
X158528571Y-73654819D01*
X158528571Y-73654819D02*
X158433333Y-73607200D01*
X158433333Y-73607200D02*
X158385714Y-73559580D01*
X158385714Y-73559580D02*
X158338095Y-73464342D01*
X158338095Y-73464342D02*
X158290476Y-73273866D01*
X158290476Y-73273866D02*
X158290476Y-73035771D01*
X158290476Y-73035771D02*
X158338095Y-72845295D01*
X158338095Y-72845295D02*
X158385714Y-72750057D01*
X158385714Y-72750057D02*
X158433333Y-72702438D01*
X158433333Y-72702438D02*
X158528571Y-72654819D01*
X148854819Y-77966666D02*
X148378628Y-78299999D01*
X148854819Y-78538094D02*
X147854819Y-78538094D01*
X147854819Y-78538094D02*
X147854819Y-78157142D01*
X147854819Y-78157142D02*
X147902438Y-78061904D01*
X147902438Y-78061904D02*
X147950057Y-78014285D01*
X147950057Y-78014285D02*
X148045295Y-77966666D01*
X148045295Y-77966666D02*
X148188152Y-77966666D01*
X148188152Y-77966666D02*
X148283390Y-78014285D01*
X148283390Y-78014285D02*
X148331009Y-78061904D01*
X148331009Y-78061904D02*
X148378628Y-78157142D01*
X148378628Y-78157142D02*
X148378628Y-78538094D01*
X148854819Y-77490475D02*
X148854819Y-77299999D01*
X148854819Y-77299999D02*
X148807200Y-77204761D01*
X148807200Y-77204761D02*
X148759580Y-77157142D01*
X148759580Y-77157142D02*
X148616723Y-77061904D01*
X148616723Y-77061904D02*
X148426247Y-77014285D01*
X148426247Y-77014285D02*
X148045295Y-77014285D01*
X148045295Y-77014285D02*
X147950057Y-77061904D01*
X147950057Y-77061904D02*
X147902438Y-77109523D01*
X147902438Y-77109523D02*
X147854819Y-77204761D01*
X147854819Y-77204761D02*
X147854819Y-77395237D01*
X147854819Y-77395237D02*
X147902438Y-77490475D01*
X147902438Y-77490475D02*
X147950057Y-77538094D01*
X147950057Y-77538094D02*
X148045295Y-77585713D01*
X148045295Y-77585713D02*
X148283390Y-77585713D01*
X148283390Y-77585713D02*
X148378628Y-77538094D01*
X148378628Y-77538094D02*
X148426247Y-77490475D01*
X148426247Y-77490475D02*
X148473866Y-77395237D01*
X148473866Y-77395237D02*
X148473866Y-77204761D01*
X148473866Y-77204761D02*
X148426247Y-77109523D01*
X148426247Y-77109523D02*
X148378628Y-77061904D01*
X148378628Y-77061904D02*
X148283390Y-77014285D01*
X172104819Y-81254166D02*
X171628628Y-81587499D01*
X172104819Y-81825594D02*
X171104819Y-81825594D01*
X171104819Y-81825594D02*
X171104819Y-81444642D01*
X171104819Y-81444642D02*
X171152438Y-81349404D01*
X171152438Y-81349404D02*
X171200057Y-81301785D01*
X171200057Y-81301785D02*
X171295295Y-81254166D01*
X171295295Y-81254166D02*
X171438152Y-81254166D01*
X171438152Y-81254166D02*
X171533390Y-81301785D01*
X171533390Y-81301785D02*
X171581009Y-81349404D01*
X171581009Y-81349404D02*
X171628628Y-81444642D01*
X171628628Y-81444642D02*
X171628628Y-81825594D01*
X171533390Y-80682737D02*
X171485771Y-80777975D01*
X171485771Y-80777975D02*
X171438152Y-80825594D01*
X171438152Y-80825594D02*
X171342914Y-80873213D01*
X171342914Y-80873213D02*
X171295295Y-80873213D01*
X171295295Y-80873213D02*
X171200057Y-80825594D01*
X171200057Y-80825594D02*
X171152438Y-80777975D01*
X171152438Y-80777975D02*
X171104819Y-80682737D01*
X171104819Y-80682737D02*
X171104819Y-80492261D01*
X171104819Y-80492261D02*
X171152438Y-80397023D01*
X171152438Y-80397023D02*
X171200057Y-80349404D01*
X171200057Y-80349404D02*
X171295295Y-80301785D01*
X171295295Y-80301785D02*
X171342914Y-80301785D01*
X171342914Y-80301785D02*
X171438152Y-80349404D01*
X171438152Y-80349404D02*
X171485771Y-80397023D01*
X171485771Y-80397023D02*
X171533390Y-80492261D01*
X171533390Y-80492261D02*
X171533390Y-80682737D01*
X171533390Y-80682737D02*
X171581009Y-80777975D01*
X171581009Y-80777975D02*
X171628628Y-80825594D01*
X171628628Y-80825594D02*
X171723866Y-80873213D01*
X171723866Y-80873213D02*
X171914342Y-80873213D01*
X171914342Y-80873213D02*
X172009580Y-80825594D01*
X172009580Y-80825594D02*
X172057200Y-80777975D01*
X172057200Y-80777975D02*
X172104819Y-80682737D01*
X172104819Y-80682737D02*
X172104819Y-80492261D01*
X172104819Y-80492261D02*
X172057200Y-80397023D01*
X172057200Y-80397023D02*
X172009580Y-80349404D01*
X172009580Y-80349404D02*
X171914342Y-80301785D01*
X171914342Y-80301785D02*
X171723866Y-80301785D01*
X171723866Y-80301785D02*
X171628628Y-80349404D01*
X171628628Y-80349404D02*
X171581009Y-80397023D01*
X171581009Y-80397023D02*
X171533390Y-80492261D01*
X151254819Y-86079166D02*
X150778628Y-86412499D01*
X151254819Y-86650594D02*
X150254819Y-86650594D01*
X150254819Y-86650594D02*
X150254819Y-86269642D01*
X150254819Y-86269642D02*
X150302438Y-86174404D01*
X150302438Y-86174404D02*
X150350057Y-86126785D01*
X150350057Y-86126785D02*
X150445295Y-86079166D01*
X150445295Y-86079166D02*
X150588152Y-86079166D01*
X150588152Y-86079166D02*
X150683390Y-86126785D01*
X150683390Y-86126785D02*
X150731009Y-86174404D01*
X150731009Y-86174404D02*
X150778628Y-86269642D01*
X150778628Y-86269642D02*
X150778628Y-86650594D01*
X150254819Y-85745832D02*
X150254819Y-85079166D01*
X150254819Y-85079166D02*
X151254819Y-85507737D01*
X151104819Y-91254166D02*
X150628628Y-91587499D01*
X151104819Y-91825594D02*
X150104819Y-91825594D01*
X150104819Y-91825594D02*
X150104819Y-91444642D01*
X150104819Y-91444642D02*
X150152438Y-91349404D01*
X150152438Y-91349404D02*
X150200057Y-91301785D01*
X150200057Y-91301785D02*
X150295295Y-91254166D01*
X150295295Y-91254166D02*
X150438152Y-91254166D01*
X150438152Y-91254166D02*
X150533390Y-91301785D01*
X150533390Y-91301785D02*
X150581009Y-91349404D01*
X150581009Y-91349404D02*
X150628628Y-91444642D01*
X150628628Y-91444642D02*
X150628628Y-91825594D01*
X150104819Y-90397023D02*
X150104819Y-90587499D01*
X150104819Y-90587499D02*
X150152438Y-90682737D01*
X150152438Y-90682737D02*
X150200057Y-90730356D01*
X150200057Y-90730356D02*
X150342914Y-90825594D01*
X150342914Y-90825594D02*
X150533390Y-90873213D01*
X150533390Y-90873213D02*
X150914342Y-90873213D01*
X150914342Y-90873213D02*
X151009580Y-90825594D01*
X151009580Y-90825594D02*
X151057200Y-90777975D01*
X151057200Y-90777975D02*
X151104819Y-90682737D01*
X151104819Y-90682737D02*
X151104819Y-90492261D01*
X151104819Y-90492261D02*
X151057200Y-90397023D01*
X151057200Y-90397023D02*
X151009580Y-90349404D01*
X151009580Y-90349404D02*
X150914342Y-90301785D01*
X150914342Y-90301785D02*
X150676247Y-90301785D01*
X150676247Y-90301785D02*
X150581009Y-90349404D01*
X150581009Y-90349404D02*
X150533390Y-90397023D01*
X150533390Y-90397023D02*
X150485771Y-90492261D01*
X150485771Y-90492261D02*
X150485771Y-90682737D01*
X150485771Y-90682737D02*
X150533390Y-90777975D01*
X150533390Y-90777975D02*
X150581009Y-90825594D01*
X150581009Y-90825594D02*
X150676247Y-90873213D01*
X153745833Y-93104819D02*
X153412500Y-92628628D01*
X153174405Y-93104819D02*
X153174405Y-92104819D01*
X153174405Y-92104819D02*
X153555357Y-92104819D01*
X153555357Y-92104819D02*
X153650595Y-92152438D01*
X153650595Y-92152438D02*
X153698214Y-92200057D01*
X153698214Y-92200057D02*
X153745833Y-92295295D01*
X153745833Y-92295295D02*
X153745833Y-92438152D01*
X153745833Y-92438152D02*
X153698214Y-92533390D01*
X153698214Y-92533390D02*
X153650595Y-92581009D01*
X153650595Y-92581009D02*
X153555357Y-92628628D01*
X153555357Y-92628628D02*
X153174405Y-92628628D01*
X154650595Y-92104819D02*
X154174405Y-92104819D01*
X154174405Y-92104819D02*
X154126786Y-92581009D01*
X154126786Y-92581009D02*
X154174405Y-92533390D01*
X154174405Y-92533390D02*
X154269643Y-92485771D01*
X154269643Y-92485771D02*
X154507738Y-92485771D01*
X154507738Y-92485771D02*
X154602976Y-92533390D01*
X154602976Y-92533390D02*
X154650595Y-92581009D01*
X154650595Y-92581009D02*
X154698214Y-92676247D01*
X154698214Y-92676247D02*
X154698214Y-92914342D01*
X154698214Y-92914342D02*
X154650595Y-93009580D01*
X154650595Y-93009580D02*
X154602976Y-93057200D01*
X154602976Y-93057200D02*
X154507738Y-93104819D01*
X154507738Y-93104819D02*
X154269643Y-93104819D01*
X154269643Y-93104819D02*
X154174405Y-93057200D01*
X154174405Y-93057200D02*
X154126786Y-93009580D01*
X166633333Y-78854819D02*
X166300000Y-78378628D01*
X166061905Y-78854819D02*
X166061905Y-77854819D01*
X166061905Y-77854819D02*
X166442857Y-77854819D01*
X166442857Y-77854819D02*
X166538095Y-77902438D01*
X166538095Y-77902438D02*
X166585714Y-77950057D01*
X166585714Y-77950057D02*
X166633333Y-78045295D01*
X166633333Y-78045295D02*
X166633333Y-78188152D01*
X166633333Y-78188152D02*
X166585714Y-78283390D01*
X166585714Y-78283390D02*
X166538095Y-78331009D01*
X166538095Y-78331009D02*
X166442857Y-78378628D01*
X166442857Y-78378628D02*
X166061905Y-78378628D01*
X167490476Y-78188152D02*
X167490476Y-78854819D01*
X167252381Y-77807200D02*
X167014286Y-78521485D01*
X167014286Y-78521485D02*
X167633333Y-78521485D01*
X153833333Y-96104819D02*
X153500000Y-95628628D01*
X153261905Y-96104819D02*
X153261905Y-95104819D01*
X153261905Y-95104819D02*
X153642857Y-95104819D01*
X153642857Y-95104819D02*
X153738095Y-95152438D01*
X153738095Y-95152438D02*
X153785714Y-95200057D01*
X153785714Y-95200057D02*
X153833333Y-95295295D01*
X153833333Y-95295295D02*
X153833333Y-95438152D01*
X153833333Y-95438152D02*
X153785714Y-95533390D01*
X153785714Y-95533390D02*
X153738095Y-95581009D01*
X153738095Y-95581009D02*
X153642857Y-95628628D01*
X153642857Y-95628628D02*
X153261905Y-95628628D01*
X154166667Y-95104819D02*
X154785714Y-95104819D01*
X154785714Y-95104819D02*
X154452381Y-95485771D01*
X154452381Y-95485771D02*
X154595238Y-95485771D01*
X154595238Y-95485771D02*
X154690476Y-95533390D01*
X154690476Y-95533390D02*
X154738095Y-95581009D01*
X154738095Y-95581009D02*
X154785714Y-95676247D01*
X154785714Y-95676247D02*
X154785714Y-95914342D01*
X154785714Y-95914342D02*
X154738095Y-96009580D01*
X154738095Y-96009580D02*
X154690476Y-96057200D01*
X154690476Y-96057200D02*
X154595238Y-96104819D01*
X154595238Y-96104819D02*
X154309524Y-96104819D01*
X154309524Y-96104819D02*
X154214286Y-96057200D01*
X154214286Y-96057200D02*
X154166667Y-96009580D01*
X163608333Y-97104819D02*
X163275000Y-96628628D01*
X163036905Y-97104819D02*
X163036905Y-96104819D01*
X163036905Y-96104819D02*
X163417857Y-96104819D01*
X163417857Y-96104819D02*
X163513095Y-96152438D01*
X163513095Y-96152438D02*
X163560714Y-96200057D01*
X163560714Y-96200057D02*
X163608333Y-96295295D01*
X163608333Y-96295295D02*
X163608333Y-96438152D01*
X163608333Y-96438152D02*
X163560714Y-96533390D01*
X163560714Y-96533390D02*
X163513095Y-96581009D01*
X163513095Y-96581009D02*
X163417857Y-96628628D01*
X163417857Y-96628628D02*
X163036905Y-96628628D01*
X163989286Y-96200057D02*
X164036905Y-96152438D01*
X164036905Y-96152438D02*
X164132143Y-96104819D01*
X164132143Y-96104819D02*
X164370238Y-96104819D01*
X164370238Y-96104819D02*
X164465476Y-96152438D01*
X164465476Y-96152438D02*
X164513095Y-96200057D01*
X164513095Y-96200057D02*
X164560714Y-96295295D01*
X164560714Y-96295295D02*
X164560714Y-96390533D01*
X164560714Y-96390533D02*
X164513095Y-96533390D01*
X164513095Y-96533390D02*
X163941667Y-97104819D01*
X163941667Y-97104819D02*
X164560714Y-97104819D01*
X166433333Y-87054819D02*
X166100000Y-86578628D01*
X165861905Y-87054819D02*
X165861905Y-86054819D01*
X165861905Y-86054819D02*
X166242857Y-86054819D01*
X166242857Y-86054819D02*
X166338095Y-86102438D01*
X166338095Y-86102438D02*
X166385714Y-86150057D01*
X166385714Y-86150057D02*
X166433333Y-86245295D01*
X166433333Y-86245295D02*
X166433333Y-86388152D01*
X166433333Y-86388152D02*
X166385714Y-86483390D01*
X166385714Y-86483390D02*
X166338095Y-86531009D01*
X166338095Y-86531009D02*
X166242857Y-86578628D01*
X166242857Y-86578628D02*
X165861905Y-86578628D01*
X167385714Y-87054819D02*
X166814286Y-87054819D01*
X167100000Y-87054819D02*
X167100000Y-86054819D01*
X167100000Y-86054819D02*
X167004762Y-86197676D01*
X167004762Y-86197676D02*
X166909524Y-86292914D01*
X166909524Y-86292914D02*
X166814286Y-86340533D01*
X163904761Y-93950057D02*
X163809523Y-93902438D01*
X163809523Y-93902438D02*
X163714285Y-93807200D01*
X163714285Y-93807200D02*
X163571428Y-93664342D01*
X163571428Y-93664342D02*
X163476190Y-93616723D01*
X163476190Y-93616723D02*
X163380952Y-93616723D01*
X163428571Y-93854819D02*
X163333333Y-93807200D01*
X163333333Y-93807200D02*
X163238095Y-93711961D01*
X163238095Y-93711961D02*
X163190476Y-93521485D01*
X163190476Y-93521485D02*
X163190476Y-93188152D01*
X163190476Y-93188152D02*
X163238095Y-92997676D01*
X163238095Y-92997676D02*
X163333333Y-92902438D01*
X163333333Y-92902438D02*
X163428571Y-92854819D01*
X163428571Y-92854819D02*
X163619047Y-92854819D01*
X163619047Y-92854819D02*
X163714285Y-92902438D01*
X163714285Y-92902438D02*
X163809523Y-92997676D01*
X163809523Y-92997676D02*
X163857142Y-93188152D01*
X163857142Y-93188152D02*
X163857142Y-93521485D01*
X163857142Y-93521485D02*
X163809523Y-93711961D01*
X163809523Y-93711961D02*
X163714285Y-93807200D01*
X163714285Y-93807200D02*
X163619047Y-93854819D01*
X163619047Y-93854819D02*
X163428571Y-93854819D01*
X164809523Y-93854819D02*
X164238095Y-93854819D01*
X164523809Y-93854819D02*
X164523809Y-92854819D01*
X164523809Y-92854819D02*
X164428571Y-92997676D01*
X164428571Y-92997676D02*
X164333333Y-93092914D01*
X164333333Y-93092914D02*
X164238095Y-93140533D01*
X169666666Y-93284819D02*
X169666666Y-93999104D01*
X169666666Y-93999104D02*
X169619047Y-94141961D01*
X169619047Y-94141961D02*
X169523809Y-94237200D01*
X169523809Y-94237200D02*
X169380952Y-94284819D01*
X169380952Y-94284819D02*
X169285714Y-94284819D01*
X170047619Y-93284819D02*
X170714285Y-93284819D01*
X170714285Y-93284819D02*
X170285714Y-94284819D01*
X157124819Y-100333333D02*
X157839104Y-100333333D01*
X157839104Y-100333333D02*
X157981961Y-100380952D01*
X157981961Y-100380952D02*
X158077200Y-100476190D01*
X158077200Y-100476190D02*
X158124819Y-100619047D01*
X158124819Y-100619047D02*
X158124819Y-100714285D01*
X157124819Y-99428571D02*
X157124819Y-99619047D01*
X157124819Y-99619047D02*
X157172438Y-99714285D01*
X157172438Y-99714285D02*
X157220057Y-99761904D01*
X157220057Y-99761904D02*
X157362914Y-99857142D01*
X157362914Y-99857142D02*
X157553390Y-99904761D01*
X157553390Y-99904761D02*
X157934342Y-99904761D01*
X157934342Y-99904761D02*
X158029580Y-99857142D01*
X158029580Y-99857142D02*
X158077200Y-99809523D01*
X158077200Y-99809523D02*
X158124819Y-99714285D01*
X158124819Y-99714285D02*
X158124819Y-99523809D01*
X158124819Y-99523809D02*
X158077200Y-99428571D01*
X158077200Y-99428571D02*
X158029580Y-99380952D01*
X158029580Y-99380952D02*
X157934342Y-99333333D01*
X157934342Y-99333333D02*
X157696247Y-99333333D01*
X157696247Y-99333333D02*
X157601009Y-99380952D01*
X157601009Y-99380952D02*
X157553390Y-99428571D01*
X157553390Y-99428571D02*
X157505771Y-99523809D01*
X157505771Y-99523809D02*
X157505771Y-99714285D01*
X157505771Y-99714285D02*
X157553390Y-99809523D01*
X157553390Y-99809523D02*
X157601009Y-99857142D01*
X157601009Y-99857142D02*
X157696247Y-99904761D01*
X144666666Y-80504819D02*
X144666666Y-81219104D01*
X144666666Y-81219104D02*
X144619047Y-81361961D01*
X144619047Y-81361961D02*
X144523809Y-81457200D01*
X144523809Y-81457200D02*
X144380952Y-81504819D01*
X144380952Y-81504819D02*
X144285714Y-81504819D01*
X145619047Y-80504819D02*
X145142857Y-80504819D01*
X145142857Y-80504819D02*
X145095238Y-80981009D01*
X145095238Y-80981009D02*
X145142857Y-80933390D01*
X145142857Y-80933390D02*
X145238095Y-80885771D01*
X145238095Y-80885771D02*
X145476190Y-80885771D01*
X145476190Y-80885771D02*
X145571428Y-80933390D01*
X145571428Y-80933390D02*
X145619047Y-80981009D01*
X145619047Y-80981009D02*
X145666666Y-81076247D01*
X145666666Y-81076247D02*
X145666666Y-81314342D01*
X145666666Y-81314342D02*
X145619047Y-81409580D01*
X145619047Y-81409580D02*
X145571428Y-81457200D01*
X145571428Y-81457200D02*
X145476190Y-81504819D01*
X145476190Y-81504819D02*
X145238095Y-81504819D01*
X145238095Y-81504819D02*
X145142857Y-81457200D01*
X145142857Y-81457200D02*
X145095238Y-81409580D01*
X169666666Y-70654819D02*
X169666666Y-71369104D01*
X169666666Y-71369104D02*
X169619047Y-71511961D01*
X169619047Y-71511961D02*
X169523809Y-71607200D01*
X169523809Y-71607200D02*
X169380952Y-71654819D01*
X169380952Y-71654819D02*
X169285714Y-71654819D01*
X170571428Y-70988152D02*
X170571428Y-71654819D01*
X170333333Y-70607200D02*
X170095238Y-71321485D01*
X170095238Y-71321485D02*
X170714285Y-71321485D01*
X169666666Y-95654819D02*
X169666666Y-96369104D01*
X169666666Y-96369104D02*
X169619047Y-96511961D01*
X169619047Y-96511961D02*
X169523809Y-96607200D01*
X169523809Y-96607200D02*
X169380952Y-96654819D01*
X169380952Y-96654819D02*
X169285714Y-96654819D01*
X170047619Y-95654819D02*
X170666666Y-95654819D01*
X170666666Y-95654819D02*
X170333333Y-96035771D01*
X170333333Y-96035771D02*
X170476190Y-96035771D01*
X170476190Y-96035771D02*
X170571428Y-96083390D01*
X170571428Y-96083390D02*
X170619047Y-96131009D01*
X170619047Y-96131009D02*
X170666666Y-96226247D01*
X170666666Y-96226247D02*
X170666666Y-96464342D01*
X170666666Y-96464342D02*
X170619047Y-96559580D01*
X170619047Y-96559580D02*
X170571428Y-96607200D01*
X170571428Y-96607200D02*
X170476190Y-96654819D01*
X170476190Y-96654819D02*
X170190476Y-96654819D01*
X170190476Y-96654819D02*
X170095238Y-96607200D01*
X170095238Y-96607200D02*
X170047619Y-96559580D01*
X144666666Y-95654819D02*
X144666666Y-96369104D01*
X144666666Y-96369104D02*
X144619047Y-96511961D01*
X144619047Y-96511961D02*
X144523809Y-96607200D01*
X144523809Y-96607200D02*
X144380952Y-96654819D01*
X144380952Y-96654819D02*
X144285714Y-96654819D01*
X145095238Y-95750057D02*
X145142857Y-95702438D01*
X145142857Y-95702438D02*
X145238095Y-95654819D01*
X145238095Y-95654819D02*
X145476190Y-95654819D01*
X145476190Y-95654819D02*
X145571428Y-95702438D01*
X145571428Y-95702438D02*
X145619047Y-95750057D01*
X145619047Y-95750057D02*
X145666666Y-95845295D01*
X145666666Y-95845295D02*
X145666666Y-95940533D01*
X145666666Y-95940533D02*
X145619047Y-96083390D01*
X145619047Y-96083390D02*
X145047619Y-96654819D01*
X145047619Y-96654819D02*
X145666666Y-96654819D01*
X144666666Y-70654819D02*
X144666666Y-71369104D01*
X144666666Y-71369104D02*
X144619047Y-71511961D01*
X144619047Y-71511961D02*
X144523809Y-71607200D01*
X144523809Y-71607200D02*
X144380952Y-71654819D01*
X144380952Y-71654819D02*
X144285714Y-71654819D01*
X145666666Y-71654819D02*
X145095238Y-71654819D01*
X145380952Y-71654819D02*
X145380952Y-70654819D01*
X145380952Y-70654819D02*
X145285714Y-70797676D01*
X145285714Y-70797676D02*
X145190476Y-70892914D01*
X145190476Y-70892914D02*
X145095238Y-70940533D01*
X161861905Y-73654819D02*
X161861905Y-72654819D01*
X161861905Y-72654819D02*
X162100000Y-72654819D01*
X162100000Y-72654819D02*
X162242857Y-72702438D01*
X162242857Y-72702438D02*
X162338095Y-72797676D01*
X162338095Y-72797676D02*
X162385714Y-72892914D01*
X162385714Y-72892914D02*
X162433333Y-73083390D01*
X162433333Y-73083390D02*
X162433333Y-73226247D01*
X162433333Y-73226247D02*
X162385714Y-73416723D01*
X162385714Y-73416723D02*
X162338095Y-73511961D01*
X162338095Y-73511961D02*
X162242857Y-73607200D01*
X162242857Y-73607200D02*
X162100000Y-73654819D01*
X162100000Y-73654819D02*
X161861905Y-73654819D01*
X163290476Y-72988152D02*
X163290476Y-73654819D01*
X163052381Y-72607200D02*
X162814286Y-73321485D01*
X162814286Y-73321485D02*
X163433333Y-73321485D01*
X152461905Y-85054819D02*
X152461905Y-84054819D01*
X152461905Y-84054819D02*
X152700000Y-84054819D01*
X152700000Y-84054819D02*
X152842857Y-84102438D01*
X152842857Y-84102438D02*
X152938095Y-84197676D01*
X152938095Y-84197676D02*
X152985714Y-84292914D01*
X152985714Y-84292914D02*
X153033333Y-84483390D01*
X153033333Y-84483390D02*
X153033333Y-84626247D01*
X153033333Y-84626247D02*
X152985714Y-84816723D01*
X152985714Y-84816723D02*
X152938095Y-84911961D01*
X152938095Y-84911961D02*
X152842857Y-85007200D01*
X152842857Y-85007200D02*
X152700000Y-85054819D01*
X152700000Y-85054819D02*
X152461905Y-85054819D01*
X153366667Y-84054819D02*
X153985714Y-84054819D01*
X153985714Y-84054819D02*
X153652381Y-84435771D01*
X153652381Y-84435771D02*
X153795238Y-84435771D01*
X153795238Y-84435771D02*
X153890476Y-84483390D01*
X153890476Y-84483390D02*
X153938095Y-84531009D01*
X153938095Y-84531009D02*
X153985714Y-84626247D01*
X153985714Y-84626247D02*
X153985714Y-84864342D01*
X153985714Y-84864342D02*
X153938095Y-84959580D01*
X153938095Y-84959580D02*
X153890476Y-85007200D01*
X153890476Y-85007200D02*
X153795238Y-85054819D01*
X153795238Y-85054819D02*
X153509524Y-85054819D01*
X153509524Y-85054819D02*
X153414286Y-85007200D01*
X153414286Y-85007200D02*
X153366667Y-84959580D01*
X153124405Y-100804819D02*
X153124405Y-99804819D01*
X153124405Y-99804819D02*
X153362500Y-99804819D01*
X153362500Y-99804819D02*
X153505357Y-99852438D01*
X153505357Y-99852438D02*
X153600595Y-99947676D01*
X153600595Y-99947676D02*
X153648214Y-100042914D01*
X153648214Y-100042914D02*
X153695833Y-100233390D01*
X153695833Y-100233390D02*
X153695833Y-100376247D01*
X153695833Y-100376247D02*
X153648214Y-100566723D01*
X153648214Y-100566723D02*
X153600595Y-100661961D01*
X153600595Y-100661961D02*
X153505357Y-100757200D01*
X153505357Y-100757200D02*
X153362500Y-100804819D01*
X153362500Y-100804819D02*
X153124405Y-100804819D01*
X154076786Y-99900057D02*
X154124405Y-99852438D01*
X154124405Y-99852438D02*
X154219643Y-99804819D01*
X154219643Y-99804819D02*
X154457738Y-99804819D01*
X154457738Y-99804819D02*
X154552976Y-99852438D01*
X154552976Y-99852438D02*
X154600595Y-99900057D01*
X154600595Y-99900057D02*
X154648214Y-99995295D01*
X154648214Y-99995295D02*
X154648214Y-100090533D01*
X154648214Y-100090533D02*
X154600595Y-100233390D01*
X154600595Y-100233390D02*
X154029167Y-100804819D01*
X154029167Y-100804819D02*
X154648214Y-100804819D01*
X163124405Y-81054819D02*
X163124405Y-80054819D01*
X163124405Y-80054819D02*
X163362500Y-80054819D01*
X163362500Y-80054819D02*
X163505357Y-80102438D01*
X163505357Y-80102438D02*
X163600595Y-80197676D01*
X163600595Y-80197676D02*
X163648214Y-80292914D01*
X163648214Y-80292914D02*
X163695833Y-80483390D01*
X163695833Y-80483390D02*
X163695833Y-80626247D01*
X163695833Y-80626247D02*
X163648214Y-80816723D01*
X163648214Y-80816723D02*
X163600595Y-80911961D01*
X163600595Y-80911961D02*
X163505357Y-81007200D01*
X163505357Y-81007200D02*
X163362500Y-81054819D01*
X163362500Y-81054819D02*
X163124405Y-81054819D01*
X164648214Y-81054819D02*
X164076786Y-81054819D01*
X164362500Y-81054819D02*
X164362500Y-80054819D01*
X164362500Y-80054819D02*
X164267262Y-80197676D01*
X164267262Y-80197676D02*
X164172024Y-80292914D01*
X164172024Y-80292914D02*
X164076786Y-80340533D01*
X160433333Y-80159580D02*
X160385714Y-80207200D01*
X160385714Y-80207200D02*
X160242857Y-80254819D01*
X160242857Y-80254819D02*
X160147619Y-80254819D01*
X160147619Y-80254819D02*
X160004762Y-80207200D01*
X160004762Y-80207200D02*
X159909524Y-80111961D01*
X159909524Y-80111961D02*
X159861905Y-80016723D01*
X159861905Y-80016723D02*
X159814286Y-79826247D01*
X159814286Y-79826247D02*
X159814286Y-79683390D01*
X159814286Y-79683390D02*
X159861905Y-79492914D01*
X159861905Y-79492914D02*
X159909524Y-79397676D01*
X159909524Y-79397676D02*
X160004762Y-79302438D01*
X160004762Y-79302438D02*
X160147619Y-79254819D01*
X160147619Y-79254819D02*
X160242857Y-79254819D01*
X160242857Y-79254819D02*
X160385714Y-79302438D01*
X160385714Y-79302438D02*
X160433333Y-79350057D01*
X161290476Y-79588152D02*
X161290476Y-80254819D01*
X161052381Y-79207200D02*
X160814286Y-79921485D01*
X160814286Y-79921485D02*
X161433333Y-79921485D01*
X148033333Y-81359580D02*
X147985714Y-81407200D01*
X147985714Y-81407200D02*
X147842857Y-81454819D01*
X147842857Y-81454819D02*
X147747619Y-81454819D01*
X147747619Y-81454819D02*
X147604762Y-81407200D01*
X147604762Y-81407200D02*
X147509524Y-81311961D01*
X147509524Y-81311961D02*
X147461905Y-81216723D01*
X147461905Y-81216723D02*
X147414286Y-81026247D01*
X147414286Y-81026247D02*
X147414286Y-80883390D01*
X147414286Y-80883390D02*
X147461905Y-80692914D01*
X147461905Y-80692914D02*
X147509524Y-80597676D01*
X147509524Y-80597676D02*
X147604762Y-80502438D01*
X147604762Y-80502438D02*
X147747619Y-80454819D01*
X147747619Y-80454819D02*
X147842857Y-80454819D01*
X147842857Y-80454819D02*
X147985714Y-80502438D01*
X147985714Y-80502438D02*
X148033333Y-80550057D01*
X148366667Y-80454819D02*
X148985714Y-80454819D01*
X148985714Y-80454819D02*
X148652381Y-80835771D01*
X148652381Y-80835771D02*
X148795238Y-80835771D01*
X148795238Y-80835771D02*
X148890476Y-80883390D01*
X148890476Y-80883390D02*
X148938095Y-80931009D01*
X148938095Y-80931009D02*
X148985714Y-81026247D01*
X148985714Y-81026247D02*
X148985714Y-81264342D01*
X148985714Y-81264342D02*
X148938095Y-81359580D01*
X148938095Y-81359580D02*
X148890476Y-81407200D01*
X148890476Y-81407200D02*
X148795238Y-81454819D01*
X148795238Y-81454819D02*
X148509524Y-81454819D01*
X148509524Y-81454819D02*
X148414286Y-81407200D01*
X148414286Y-81407200D02*
X148366667Y-81359580D01*
X160233333Y-83759580D02*
X160185714Y-83807200D01*
X160185714Y-83807200D02*
X160042857Y-83854819D01*
X160042857Y-83854819D02*
X159947619Y-83854819D01*
X159947619Y-83854819D02*
X159804762Y-83807200D01*
X159804762Y-83807200D02*
X159709524Y-83711961D01*
X159709524Y-83711961D02*
X159661905Y-83616723D01*
X159661905Y-83616723D02*
X159614286Y-83426247D01*
X159614286Y-83426247D02*
X159614286Y-83283390D01*
X159614286Y-83283390D02*
X159661905Y-83092914D01*
X159661905Y-83092914D02*
X159709524Y-82997676D01*
X159709524Y-82997676D02*
X159804762Y-82902438D01*
X159804762Y-82902438D02*
X159947619Y-82854819D01*
X159947619Y-82854819D02*
X160042857Y-82854819D01*
X160042857Y-82854819D02*
X160185714Y-82902438D01*
X160185714Y-82902438D02*
X160233333Y-82950057D01*
X160614286Y-82950057D02*
X160661905Y-82902438D01*
X160661905Y-82902438D02*
X160757143Y-82854819D01*
X160757143Y-82854819D02*
X160995238Y-82854819D01*
X160995238Y-82854819D02*
X161090476Y-82902438D01*
X161090476Y-82902438D02*
X161138095Y-82950057D01*
X161138095Y-82950057D02*
X161185714Y-83045295D01*
X161185714Y-83045295D02*
X161185714Y-83140533D01*
X161185714Y-83140533D02*
X161138095Y-83283390D01*
X161138095Y-83283390D02*
X160566667Y-83854819D01*
X160566667Y-83854819D02*
X161185714Y-83854819D01*
X156433333Y-89759580D02*
X156385714Y-89807200D01*
X156385714Y-89807200D02*
X156242857Y-89854819D01*
X156242857Y-89854819D02*
X156147619Y-89854819D01*
X156147619Y-89854819D02*
X156004762Y-89807200D01*
X156004762Y-89807200D02*
X155909524Y-89711961D01*
X155909524Y-89711961D02*
X155861905Y-89616723D01*
X155861905Y-89616723D02*
X155814286Y-89426247D01*
X155814286Y-89426247D02*
X155814286Y-89283390D01*
X155814286Y-89283390D02*
X155861905Y-89092914D01*
X155861905Y-89092914D02*
X155909524Y-88997676D01*
X155909524Y-88997676D02*
X156004762Y-88902438D01*
X156004762Y-88902438D02*
X156147619Y-88854819D01*
X156147619Y-88854819D02*
X156242857Y-88854819D01*
X156242857Y-88854819D02*
X156385714Y-88902438D01*
X156385714Y-88902438D02*
X156433333Y-88950057D01*
X157385714Y-89854819D02*
X156814286Y-89854819D01*
X157100000Y-89854819D02*
X157100000Y-88854819D01*
X157100000Y-88854819D02*
X157004762Y-88997676D01*
X157004762Y-88997676D02*
X156909524Y-89092914D01*
X156909524Y-89092914D02*
X156814286Y-89140533D01*
D11*
%TO.C,U3*%
X153862500Y-75490000D02*
X153062500Y-75490000D01*
X153862500Y-75490000D02*
X154662500Y-75490000D01*
X153862500Y-78610000D02*
X153062500Y-78610000D01*
X153862500Y-78610000D02*
X154662500Y-78610000D01*
X152562500Y-75540000D02*
X152322500Y-75210000D01*
X152802500Y-75210000D01*
X152562500Y-75540000D01*
G36*
X152562500Y-75540000D02*
G01*
X152322500Y-75210000D01*
X152802500Y-75210000D01*
X152562500Y-75540000D01*
G37*
%TO.C,U2*%
X158440000Y-82790000D02*
X157960000Y-82790000D01*
X158200000Y-82460000D01*
X158440000Y-82790000D01*
G36*
X158440000Y-82790000D02*
G01*
X157960000Y-82790000D01*
X158200000Y-82460000D01*
X158440000Y-82790000D01*
G37*
X157800000Y-80240000D02*
X156400000Y-80240000D01*
X157800000Y-82460000D02*
X156400000Y-82460000D01*
%TO.C,U1*%
X158200000Y-90540000D02*
X159600000Y-90540000D01*
X158200000Y-92760000D02*
X159600000Y-92760000D01*
X157800000Y-90540000D02*
X157560000Y-90210000D01*
X158040000Y-90210000D01*
X157800000Y-90540000D01*
G36*
X157800000Y-90540000D02*
G01*
X157560000Y-90210000D01*
X158040000Y-90210000D01*
X157800000Y-90540000D01*
G37*
%TO.C,R10*%
X159227064Y-75735000D02*
X158772936Y-75735000D01*
X159227064Y-74265000D02*
X158772936Y-74265000D01*
%TO.C,R9*%
X149265000Y-77227064D02*
X149265000Y-76772936D01*
X150735000Y-77227064D02*
X150735000Y-76772936D01*
%TO.C,R8*%
X170735000Y-80860436D02*
X170735000Y-81314564D01*
X169265000Y-80860436D02*
X169265000Y-81314564D01*
%TO.C,R7*%
X148265000Y-86139564D02*
X148265000Y-85685436D01*
X149735000Y-86139564D02*
X149735000Y-85685436D01*
%TO.C,R6*%
X149735000Y-90860436D02*
X149735000Y-91314564D01*
X148265000Y-90860436D02*
X148265000Y-91314564D01*
%TO.C,R5*%
X154139564Y-91735000D02*
X153685436Y-91735000D01*
X154139564Y-90265000D02*
X153685436Y-90265000D01*
%TO.C,R4*%
X163910436Y-77265000D02*
X164364564Y-77265000D01*
X163910436Y-78735000D02*
X164364564Y-78735000D01*
%TO.C,R3*%
X154227064Y-94735000D02*
X153772936Y-94735000D01*
X154227064Y-93265000D02*
X153772936Y-93265000D01*
%TO.C,R2*%
X164002064Y-95735000D02*
X163547936Y-95735000D01*
X164002064Y-94265000D02*
X163547936Y-94265000D01*
%TO.C,R1*%
X163635436Y-86265000D02*
X164089564Y-86265000D01*
X163635436Y-87735000D02*
X164089564Y-87735000D01*
%TO.C,Q1*%
X164000000Y-92560000D02*
X164800000Y-92560000D01*
X164000000Y-92560000D02*
X163200000Y-92560000D01*
X164000000Y-89440000D02*
X164800000Y-89440000D01*
X164000000Y-89440000D02*
X163200000Y-89440000D01*
X165540000Y-92840000D02*
X165060000Y-92840000D01*
X165300000Y-92510000D01*
X165540000Y-92840000D01*
G36*
X165540000Y-92840000D02*
G01*
X165060000Y-92840000D01*
X165300000Y-92510000D01*
X165540000Y-92840000D01*
G37*
%TO.C,J7*%
X171330000Y-92830000D02*
X170000000Y-92830000D01*
X171330000Y-91500000D02*
X171330000Y-92830000D01*
X171330000Y-90230000D02*
X171330000Y-85090000D01*
X171330000Y-90230000D02*
X168670000Y-90230000D01*
X171330000Y-85090000D02*
X168670000Y-85090000D01*
X168670000Y-90230000D02*
X168670000Y-85090000D01*
%TO.C,J6*%
X158670000Y-101330000D02*
X158670000Y-100000000D01*
X160000000Y-101330000D02*
X158670000Y-101330000D01*
X161270000Y-101330000D02*
X163870000Y-101330000D01*
X161270000Y-101330000D02*
X161270000Y-98670000D01*
X163870000Y-101330000D02*
X163870000Y-98670000D01*
X161270000Y-98670000D02*
X163870000Y-98670000D01*
%TO.C,J5*%
X143670000Y-82050000D02*
X145000000Y-82050000D01*
X143670000Y-83380000D02*
X143670000Y-82050000D01*
X143670000Y-84650000D02*
X143670000Y-92330000D01*
X143670000Y-84650000D02*
X146330000Y-84650000D01*
X143670000Y-92330000D02*
X146330000Y-92330000D01*
X146330000Y-84650000D02*
X146330000Y-92330000D01*
%TO.C,D4*%
X165622500Y-75960000D02*
X165622500Y-74040000D01*
X165622500Y-74040000D02*
X162937500Y-74040000D01*
X162937500Y-75960000D02*
X165622500Y-75960000D01*
%TO.C,D3*%
X153862500Y-88510000D02*
X154662500Y-88510000D01*
X153862500Y-88510000D02*
X153062500Y-88510000D01*
X153862500Y-85390000D02*
X154662500Y-85390000D01*
X153862500Y-85390000D02*
X153062500Y-85390000D01*
X155402500Y-88790000D02*
X154922500Y-88790000D01*
X155162500Y-88460000D01*
X155402500Y-88790000D01*
G36*
X155402500Y-88790000D02*
G01*
X154922500Y-88790000D01*
X155162500Y-88460000D01*
X155402500Y-88790000D01*
G37*
%TO.C,D2*%
X153862500Y-99510000D02*
X154662500Y-99510000D01*
X153862500Y-99510000D02*
X153062500Y-99510000D01*
X153862500Y-96390000D02*
X154662500Y-96390000D01*
X153862500Y-96390000D02*
X153062500Y-96390000D01*
X155402500Y-99790000D02*
X154922500Y-99790000D01*
X155162500Y-99460000D01*
X155402500Y-99790000D01*
G36*
X155402500Y-99790000D02*
G01*
X154922500Y-99790000D01*
X155162500Y-99460000D01*
X155402500Y-99790000D01*
G37*
%TO.C,D1*%
X163862500Y-81440000D02*
X163062500Y-81440000D01*
X163862500Y-81440000D02*
X164662500Y-81440000D01*
X163862500Y-84560000D02*
X163062500Y-84560000D01*
X163862500Y-84560000D02*
X164662500Y-84560000D01*
X162562500Y-81490000D02*
X162322500Y-81160000D01*
X162802500Y-81160000D01*
X162562500Y-81490000D01*
G36*
X162562500Y-81490000D02*
G01*
X162322500Y-81160000D01*
X162802500Y-81160000D01*
X162562500Y-81490000D01*
G37*
%TO.C,C4*%
X158613748Y-77265000D02*
X159136252Y-77265000D01*
X158613748Y-78735000D02*
X159136252Y-78735000D01*
%TO.C,C3*%
X150788748Y-80265000D02*
X151311252Y-80265000D01*
X150788748Y-81735000D02*
X151311252Y-81735000D01*
%TO.C,C2*%
X158688748Y-84265000D02*
X159211252Y-84265000D01*
X158688748Y-85735000D02*
X159211252Y-85735000D01*
%TO.C,C1*%
X159211252Y-88735000D02*
X158688748Y-88735000D01*
X159211252Y-87265000D02*
X158688748Y-87265000D01*
%TD*%
M02*
