%TF.GenerationSoftware,KiCad,Pcbnew,8.0.1*%
%TF.CreationDate,2024-11-19T12:42:29-08:00*%
%TF.ProjectId,DuplexUARTtoHalf,4475706c-6578-4554-9152-54746f48616c,rev?*%
%TF.SameCoordinates,Original*%
%TF.FileFunction,Legend,Bot*%
%TF.FilePolarity,Positive*%
%FSLAX46Y46*%
G04 Gerber Fmt 4.6, Leading zero omitted, Abs format (unit mm)*
G04 Created by KiCad (PCBNEW 8.0.1) date 2024-11-19 12:42:29*
%MOMM*%
%LPD*%
G01*
G04 APERTURE LIST*
%ADD10C,0.150000*%
G04 APERTURE END LIST*
D10*
X148536779Y-71849931D02*
X148536779Y-70849931D01*
X148536779Y-70849931D02*
X148774874Y-70849931D01*
X148774874Y-70849931D02*
X148917731Y-70897550D01*
X148917731Y-70897550D02*
X149012969Y-70992788D01*
X149012969Y-70992788D02*
X149060588Y-71088026D01*
X149060588Y-71088026D02*
X149108207Y-71278502D01*
X149108207Y-71278502D02*
X149108207Y-71421359D01*
X149108207Y-71421359D02*
X149060588Y-71611835D01*
X149060588Y-71611835D02*
X149012969Y-71707073D01*
X149012969Y-71707073D02*
X148917731Y-71802312D01*
X148917731Y-71802312D02*
X148774874Y-71849931D01*
X148774874Y-71849931D02*
X148536779Y-71849931D01*
X149965350Y-71183264D02*
X149965350Y-71849931D01*
X149536779Y-71183264D02*
X149536779Y-71707073D01*
X149536779Y-71707073D02*
X149584398Y-71802312D01*
X149584398Y-71802312D02*
X149679636Y-71849931D01*
X149679636Y-71849931D02*
X149822493Y-71849931D01*
X149822493Y-71849931D02*
X149917731Y-71802312D01*
X149917731Y-71802312D02*
X149965350Y-71754692D01*
X150441541Y-71183264D02*
X150441541Y-72183264D01*
X150441541Y-71230883D02*
X150536779Y-71183264D01*
X150536779Y-71183264D02*
X150727255Y-71183264D01*
X150727255Y-71183264D02*
X150822493Y-71230883D01*
X150822493Y-71230883D02*
X150870112Y-71278502D01*
X150870112Y-71278502D02*
X150917731Y-71373740D01*
X150917731Y-71373740D02*
X150917731Y-71659454D01*
X150917731Y-71659454D02*
X150870112Y-71754692D01*
X150870112Y-71754692D02*
X150822493Y-71802312D01*
X150822493Y-71802312D02*
X150727255Y-71849931D01*
X150727255Y-71849931D02*
X150536779Y-71849931D01*
X150536779Y-71849931D02*
X150441541Y-71802312D01*
X151489160Y-71849931D02*
X151393922Y-71802312D01*
X151393922Y-71802312D02*
X151346303Y-71707073D01*
X151346303Y-71707073D02*
X151346303Y-70849931D01*
X152251065Y-71802312D02*
X152155827Y-71849931D01*
X152155827Y-71849931D02*
X151965351Y-71849931D01*
X151965351Y-71849931D02*
X151870113Y-71802312D01*
X151870113Y-71802312D02*
X151822494Y-71707073D01*
X151822494Y-71707073D02*
X151822494Y-71326121D01*
X151822494Y-71326121D02*
X151870113Y-71230883D01*
X151870113Y-71230883D02*
X151965351Y-71183264D01*
X151965351Y-71183264D02*
X152155827Y-71183264D01*
X152155827Y-71183264D02*
X152251065Y-71230883D01*
X152251065Y-71230883D02*
X152298684Y-71326121D01*
X152298684Y-71326121D02*
X152298684Y-71421359D01*
X152298684Y-71421359D02*
X151822494Y-71516597D01*
X152632018Y-71849931D02*
X153155827Y-71183264D01*
X152632018Y-71183264D02*
X153155827Y-71849931D01*
X154155828Y-71183264D02*
X154536780Y-71183264D01*
X154298685Y-70849931D02*
X154298685Y-71707073D01*
X154298685Y-71707073D02*
X154346304Y-71802312D01*
X154346304Y-71802312D02*
X154441542Y-71849931D01*
X154441542Y-71849931D02*
X154536780Y-71849931D01*
X155012971Y-71849931D02*
X154917733Y-71802312D01*
X154917733Y-71802312D02*
X154870114Y-71754692D01*
X154870114Y-71754692D02*
X154822495Y-71659454D01*
X154822495Y-71659454D02*
X154822495Y-71373740D01*
X154822495Y-71373740D02*
X154870114Y-71278502D01*
X154870114Y-71278502D02*
X154917733Y-71230883D01*
X154917733Y-71230883D02*
X155012971Y-71183264D01*
X155012971Y-71183264D02*
X155155828Y-71183264D01*
X155155828Y-71183264D02*
X155251066Y-71230883D01*
X155251066Y-71230883D02*
X155298685Y-71278502D01*
X155298685Y-71278502D02*
X155346304Y-71373740D01*
X155346304Y-71373740D02*
X155346304Y-71659454D01*
X155346304Y-71659454D02*
X155298685Y-71754692D01*
X155298685Y-71754692D02*
X155251066Y-71802312D01*
X155251066Y-71802312D02*
X155155828Y-71849931D01*
X155155828Y-71849931D02*
X155012971Y-71849931D01*
X156536781Y-71849931D02*
X156536781Y-70849931D01*
X156965352Y-71849931D02*
X156965352Y-71326121D01*
X156965352Y-71326121D02*
X156917733Y-71230883D01*
X156917733Y-71230883D02*
X156822495Y-71183264D01*
X156822495Y-71183264D02*
X156679638Y-71183264D01*
X156679638Y-71183264D02*
X156584400Y-71230883D01*
X156584400Y-71230883D02*
X156536781Y-71278502D01*
X157870114Y-71849931D02*
X157870114Y-71326121D01*
X157870114Y-71326121D02*
X157822495Y-71230883D01*
X157822495Y-71230883D02*
X157727257Y-71183264D01*
X157727257Y-71183264D02*
X157536781Y-71183264D01*
X157536781Y-71183264D02*
X157441543Y-71230883D01*
X157870114Y-71802312D02*
X157774876Y-71849931D01*
X157774876Y-71849931D02*
X157536781Y-71849931D01*
X157536781Y-71849931D02*
X157441543Y-71802312D01*
X157441543Y-71802312D02*
X157393924Y-71707073D01*
X157393924Y-71707073D02*
X157393924Y-71611835D01*
X157393924Y-71611835D02*
X157441543Y-71516597D01*
X157441543Y-71516597D02*
X157536781Y-71468978D01*
X157536781Y-71468978D02*
X157774876Y-71468978D01*
X157774876Y-71468978D02*
X157870114Y-71421359D01*
X158489162Y-71849931D02*
X158393924Y-71802312D01*
X158393924Y-71802312D02*
X158346305Y-71707073D01*
X158346305Y-71707073D02*
X158346305Y-70849931D01*
X158727258Y-71183264D02*
X159108210Y-71183264D01*
X158870115Y-71849931D02*
X158870115Y-70992788D01*
X158870115Y-70992788D02*
X158917734Y-70897550D01*
X158917734Y-70897550D02*
X159012972Y-70849931D01*
X159012972Y-70849931D02*
X159108210Y-70849931D01*
X160203449Y-70849931D02*
X160203449Y-71659454D01*
X160203449Y-71659454D02*
X160251068Y-71754692D01*
X160251068Y-71754692D02*
X160298687Y-71802312D01*
X160298687Y-71802312D02*
X160393925Y-71849931D01*
X160393925Y-71849931D02*
X160584401Y-71849931D01*
X160584401Y-71849931D02*
X160679639Y-71802312D01*
X160679639Y-71802312D02*
X160727258Y-71754692D01*
X160727258Y-71754692D02*
X160774877Y-71659454D01*
X160774877Y-71659454D02*
X160774877Y-70849931D01*
X161203449Y-71564216D02*
X161679639Y-71564216D01*
X161108211Y-71849931D02*
X161441544Y-70849931D01*
X161441544Y-70849931D02*
X161774877Y-71849931D01*
X162679639Y-71849931D02*
X162346306Y-71373740D01*
X162108211Y-71849931D02*
X162108211Y-70849931D01*
X162108211Y-70849931D02*
X162489163Y-70849931D01*
X162489163Y-70849931D02*
X162584401Y-70897550D01*
X162584401Y-70897550D02*
X162632020Y-70945169D01*
X162632020Y-70945169D02*
X162679639Y-71040407D01*
X162679639Y-71040407D02*
X162679639Y-71183264D01*
X162679639Y-71183264D02*
X162632020Y-71278502D01*
X162632020Y-71278502D02*
X162584401Y-71326121D01*
X162584401Y-71326121D02*
X162489163Y-71373740D01*
X162489163Y-71373740D02*
X162108211Y-71373740D01*
X162965354Y-70849931D02*
X163536782Y-70849931D01*
X163251068Y-71849931D02*
X163251068Y-70849931D01*
X148393922Y-72459875D02*
X148727255Y-73459875D01*
X148727255Y-73459875D02*
X149060588Y-72459875D01*
X149803446Y-73494160D02*
X149765350Y-73532256D01*
X149765350Y-73532256D02*
X149651065Y-73570351D01*
X149651065Y-73570351D02*
X149574874Y-73570351D01*
X149574874Y-73570351D02*
X149460588Y-73532256D01*
X149460588Y-73532256D02*
X149384398Y-73456065D01*
X149384398Y-73456065D02*
X149346303Y-73379875D01*
X149346303Y-73379875D02*
X149308207Y-73227494D01*
X149308207Y-73227494D02*
X149308207Y-73113208D01*
X149308207Y-73113208D02*
X149346303Y-72960827D01*
X149346303Y-72960827D02*
X149384398Y-72884636D01*
X149384398Y-72884636D02*
X149460588Y-72808446D01*
X149460588Y-72808446D02*
X149574874Y-72770351D01*
X149574874Y-72770351D02*
X149651065Y-72770351D01*
X149651065Y-72770351D02*
X149765350Y-72808446D01*
X149765350Y-72808446D02*
X149803446Y-72846541D01*
X150860589Y-72459875D02*
X151479636Y-72459875D01*
X151479636Y-72459875D02*
X151146303Y-72840827D01*
X151146303Y-72840827D02*
X151289160Y-72840827D01*
X151289160Y-72840827D02*
X151384398Y-72888446D01*
X151384398Y-72888446D02*
X151432017Y-72936065D01*
X151432017Y-72936065D02*
X151479636Y-73031303D01*
X151479636Y-73031303D02*
X151479636Y-73269398D01*
X151479636Y-73269398D02*
X151432017Y-73364636D01*
X151432017Y-73364636D02*
X151384398Y-73412256D01*
X151384398Y-73412256D02*
X151289160Y-73459875D01*
X151289160Y-73459875D02*
X151003446Y-73459875D01*
X151003446Y-73459875D02*
X150908208Y-73412256D01*
X150908208Y-73412256D02*
X150860589Y-73364636D01*
X151908208Y-73364636D02*
X151955827Y-73412256D01*
X151955827Y-73412256D02*
X151908208Y-73459875D01*
X151908208Y-73459875D02*
X151860589Y-73412256D01*
X151860589Y-73412256D02*
X151908208Y-73364636D01*
X151908208Y-73364636D02*
X151908208Y-73459875D01*
X152289160Y-72459875D02*
X152908207Y-72459875D01*
X152908207Y-72459875D02*
X152574874Y-72840827D01*
X152574874Y-72840827D02*
X152717731Y-72840827D01*
X152717731Y-72840827D02*
X152812969Y-72888446D01*
X152812969Y-72888446D02*
X152860588Y-72936065D01*
X152860588Y-72936065D02*
X152908207Y-73031303D01*
X152908207Y-73031303D02*
X152908207Y-73269398D01*
X152908207Y-73269398D02*
X152860588Y-73364636D01*
X152860588Y-73364636D02*
X152812969Y-73412256D01*
X152812969Y-73412256D02*
X152717731Y-73459875D01*
X152717731Y-73459875D02*
X152432017Y-73459875D01*
X152432017Y-73459875D02*
X152336779Y-73412256D01*
X152336779Y-73412256D02*
X152289160Y-73364636D01*
X153193922Y-72459875D02*
X153527255Y-73459875D01*
X153527255Y-73459875D02*
X153860588Y-72459875D01*
X154193922Y-73078922D02*
X154955827Y-73078922D01*
X155908207Y-72459875D02*
X155432017Y-72459875D01*
X155432017Y-72459875D02*
X155384398Y-72936065D01*
X155384398Y-72936065D02*
X155432017Y-72888446D01*
X155432017Y-72888446D02*
X155527255Y-72840827D01*
X155527255Y-72840827D02*
X155765350Y-72840827D01*
X155765350Y-72840827D02*
X155860588Y-72888446D01*
X155860588Y-72888446D02*
X155908207Y-72936065D01*
X155908207Y-72936065D02*
X155955826Y-73031303D01*
X155955826Y-73031303D02*
X155955826Y-73269398D01*
X155955826Y-73269398D02*
X155908207Y-73364636D01*
X155908207Y-73364636D02*
X155860588Y-73412256D01*
X155860588Y-73412256D02*
X155765350Y-73459875D01*
X155765350Y-73459875D02*
X155527255Y-73459875D01*
X155527255Y-73459875D02*
X155432017Y-73412256D01*
X155432017Y-73412256D02*
X155384398Y-73364636D01*
X156241541Y-72459875D02*
X156574874Y-73459875D01*
X156574874Y-73459875D02*
X156908207Y-72459875D01*
X158432017Y-73459875D02*
X158432017Y-72459875D01*
X158432017Y-73412256D02*
X158336779Y-73459875D01*
X158336779Y-73459875D02*
X158146303Y-73459875D01*
X158146303Y-73459875D02*
X158051065Y-73412256D01*
X158051065Y-73412256D02*
X158003446Y-73364636D01*
X158003446Y-73364636D02*
X157955827Y-73269398D01*
X157955827Y-73269398D02*
X157955827Y-72983684D01*
X157955827Y-72983684D02*
X158003446Y-72888446D01*
X158003446Y-72888446D02*
X158051065Y-72840827D01*
X158051065Y-72840827D02*
X158146303Y-72793208D01*
X158146303Y-72793208D02*
X158336779Y-72793208D01*
X158336779Y-72793208D02*
X158432017Y-72840827D01*
X159336779Y-73459875D02*
X159336779Y-72936065D01*
X159336779Y-72936065D02*
X159289160Y-72840827D01*
X159289160Y-72840827D02*
X159193922Y-72793208D01*
X159193922Y-72793208D02*
X159003446Y-72793208D01*
X159003446Y-72793208D02*
X158908208Y-72840827D01*
X159336779Y-73412256D02*
X159241541Y-73459875D01*
X159241541Y-73459875D02*
X159003446Y-73459875D01*
X159003446Y-73459875D02*
X158908208Y-73412256D01*
X158908208Y-73412256D02*
X158860589Y-73317017D01*
X158860589Y-73317017D02*
X158860589Y-73221779D01*
X158860589Y-73221779D02*
X158908208Y-73126541D01*
X158908208Y-73126541D02*
X159003446Y-73078922D01*
X159003446Y-73078922D02*
X159241541Y-73078922D01*
X159241541Y-73078922D02*
X159336779Y-73031303D01*
X159670113Y-72793208D02*
X160051065Y-72793208D01*
X159812970Y-72459875D02*
X159812970Y-73317017D01*
X159812970Y-73317017D02*
X159860589Y-73412256D01*
X159860589Y-73412256D02*
X159955827Y-73459875D01*
X159955827Y-73459875D02*
X160051065Y-73459875D01*
X160812970Y-73459875D02*
X160812970Y-72936065D01*
X160812970Y-72936065D02*
X160765351Y-72840827D01*
X160765351Y-72840827D02*
X160670113Y-72793208D01*
X160670113Y-72793208D02*
X160479637Y-72793208D01*
X160479637Y-72793208D02*
X160384399Y-72840827D01*
X160812970Y-73412256D02*
X160717732Y-73459875D01*
X160717732Y-73459875D02*
X160479637Y-73459875D01*
X160479637Y-73459875D02*
X160384399Y-73412256D01*
X160384399Y-73412256D02*
X160336780Y-73317017D01*
X160336780Y-73317017D02*
X160336780Y-73221779D01*
X160336780Y-73221779D02*
X160384399Y-73126541D01*
X160384399Y-73126541D02*
X160479637Y-73078922D01*
X160479637Y-73078922D02*
X160717732Y-73078922D01*
X160717732Y-73078922D02*
X160812970Y-73031303D01*
X161955828Y-72793208D02*
X162193923Y-73459875D01*
X162193923Y-73459875D02*
X162432018Y-72793208D01*
X162955828Y-73459875D02*
X162860590Y-73412256D01*
X162860590Y-73412256D02*
X162812971Y-73364636D01*
X162812971Y-73364636D02*
X162765352Y-73269398D01*
X162765352Y-73269398D02*
X162765352Y-72983684D01*
X162765352Y-72983684D02*
X162812971Y-72888446D01*
X162812971Y-72888446D02*
X162860590Y-72840827D01*
X162860590Y-72840827D02*
X162955828Y-72793208D01*
X162955828Y-72793208D02*
X163098685Y-72793208D01*
X163098685Y-72793208D02*
X163193923Y-72840827D01*
X163193923Y-72840827D02*
X163241542Y-72888446D01*
X163241542Y-72888446D02*
X163289161Y-72983684D01*
X163289161Y-72983684D02*
X163289161Y-73269398D01*
X163289161Y-73269398D02*
X163241542Y-73364636D01*
X163241542Y-73364636D02*
X163193923Y-73412256D01*
X163193923Y-73412256D02*
X163098685Y-73459875D01*
X163098685Y-73459875D02*
X162955828Y-73459875D01*
X163860590Y-73459875D02*
X163765352Y-73412256D01*
X163765352Y-73412256D02*
X163717733Y-73317017D01*
X163717733Y-73317017D02*
X163717733Y-72459875D01*
X164098686Y-72793208D02*
X164479638Y-72793208D01*
X164241543Y-72459875D02*
X164241543Y-73317017D01*
X164241543Y-73317017D02*
X164289162Y-73412256D01*
X164289162Y-73412256D02*
X164384400Y-73459875D01*
X164384400Y-73459875D02*
X164479638Y-73459875D01*
X165241543Y-73459875D02*
X165241543Y-72936065D01*
X165241543Y-72936065D02*
X165193924Y-72840827D01*
X165193924Y-72840827D02*
X165098686Y-72793208D01*
X165098686Y-72793208D02*
X164908210Y-72793208D01*
X164908210Y-72793208D02*
X164812972Y-72840827D01*
X165241543Y-73412256D02*
X165146305Y-73459875D01*
X165146305Y-73459875D02*
X164908210Y-73459875D01*
X164908210Y-73459875D02*
X164812972Y-73412256D01*
X164812972Y-73412256D02*
X164765353Y-73317017D01*
X164765353Y-73317017D02*
X164765353Y-73221779D01*
X164765353Y-73221779D02*
X164812972Y-73126541D01*
X164812972Y-73126541D02*
X164908210Y-73078922D01*
X164908210Y-73078922D02*
X165146305Y-73078922D01*
X165146305Y-73078922D02*
X165241543Y-73031303D01*
X166146305Y-72793208D02*
X166146305Y-73602732D01*
X166146305Y-73602732D02*
X166098686Y-73697970D01*
X166098686Y-73697970D02*
X166051067Y-73745589D01*
X166051067Y-73745589D02*
X165955829Y-73793208D01*
X165955829Y-73793208D02*
X165812972Y-73793208D01*
X165812972Y-73793208D02*
X165717734Y-73745589D01*
X166146305Y-73412256D02*
X166051067Y-73459875D01*
X166051067Y-73459875D02*
X165860591Y-73459875D01*
X165860591Y-73459875D02*
X165765353Y-73412256D01*
X165765353Y-73412256D02*
X165717734Y-73364636D01*
X165717734Y-73364636D02*
X165670115Y-73269398D01*
X165670115Y-73269398D02*
X165670115Y-72983684D01*
X165670115Y-72983684D02*
X165717734Y-72888446D01*
X165717734Y-72888446D02*
X165765353Y-72840827D01*
X165765353Y-72840827D02*
X165860591Y-72793208D01*
X165860591Y-72793208D02*
X166051067Y-72793208D01*
X166051067Y-72793208D02*
X166146305Y-72840827D01*
X167003448Y-73412256D02*
X166908210Y-73459875D01*
X166908210Y-73459875D02*
X166717734Y-73459875D01*
X166717734Y-73459875D02*
X166622496Y-73412256D01*
X166622496Y-73412256D02*
X166574877Y-73317017D01*
X166574877Y-73317017D02*
X166574877Y-72936065D01*
X166574877Y-72936065D02*
X166622496Y-72840827D01*
X166622496Y-72840827D02*
X166717734Y-72793208D01*
X166717734Y-72793208D02*
X166908210Y-72793208D01*
X166908210Y-72793208D02*
X167003448Y-72840827D01*
X167003448Y-72840827D02*
X167051067Y-72936065D01*
X167051067Y-72936065D02*
X167051067Y-73031303D01*
X167051067Y-73031303D02*
X166574877Y-73126541D01*
X148393922Y-74069819D02*
X148727255Y-75069819D01*
X148727255Y-75069819D02*
X149060588Y-74069819D01*
X149308207Y-75142200D02*
X149422493Y-75180295D01*
X149422493Y-75180295D02*
X149612969Y-75180295D01*
X149612969Y-75180295D02*
X149689160Y-75142200D01*
X149689160Y-75142200D02*
X149727255Y-75104104D01*
X149727255Y-75104104D02*
X149765350Y-75027914D01*
X149765350Y-75027914D02*
X149765350Y-74951723D01*
X149765350Y-74951723D02*
X149727255Y-74875533D01*
X149727255Y-74875533D02*
X149689160Y-74837438D01*
X149689160Y-74837438D02*
X149612969Y-74799342D01*
X149612969Y-74799342D02*
X149460588Y-74761247D01*
X149460588Y-74761247D02*
X149384398Y-74723152D01*
X149384398Y-74723152D02*
X149346303Y-74685057D01*
X149346303Y-74685057D02*
X149308207Y-74608866D01*
X149308207Y-74608866D02*
X149308207Y-74532676D01*
X149308207Y-74532676D02*
X149346303Y-74456485D01*
X149346303Y-74456485D02*
X149384398Y-74418390D01*
X149384398Y-74418390D02*
X149460588Y-74380295D01*
X149460588Y-74380295D02*
X149651065Y-74380295D01*
X149651065Y-74380295D02*
X149765350Y-74418390D01*
X150870113Y-75022200D02*
X151012970Y-75069819D01*
X151012970Y-75069819D02*
X151251065Y-75069819D01*
X151251065Y-75069819D02*
X151346303Y-75022200D01*
X151346303Y-75022200D02*
X151393922Y-74974580D01*
X151393922Y-74974580D02*
X151441541Y-74879342D01*
X151441541Y-74879342D02*
X151441541Y-74784104D01*
X151441541Y-74784104D02*
X151393922Y-74688866D01*
X151393922Y-74688866D02*
X151346303Y-74641247D01*
X151346303Y-74641247D02*
X151251065Y-74593628D01*
X151251065Y-74593628D02*
X151060589Y-74546009D01*
X151060589Y-74546009D02*
X150965351Y-74498390D01*
X150965351Y-74498390D02*
X150917732Y-74450771D01*
X150917732Y-74450771D02*
X150870113Y-74355533D01*
X150870113Y-74355533D02*
X150870113Y-74260295D01*
X150870113Y-74260295D02*
X150917732Y-74165057D01*
X150917732Y-74165057D02*
X150965351Y-74117438D01*
X150965351Y-74117438D02*
X151060589Y-74069819D01*
X151060589Y-74069819D02*
X151298684Y-74069819D01*
X151298684Y-74069819D02*
X151441541Y-74117438D01*
X152251065Y-75022200D02*
X152155827Y-75069819D01*
X152155827Y-75069819D02*
X151965351Y-75069819D01*
X151965351Y-75069819D02*
X151870113Y-75022200D01*
X151870113Y-75022200D02*
X151822494Y-74926961D01*
X151822494Y-74926961D02*
X151822494Y-74546009D01*
X151822494Y-74546009D02*
X151870113Y-74450771D01*
X151870113Y-74450771D02*
X151965351Y-74403152D01*
X151965351Y-74403152D02*
X152155827Y-74403152D01*
X152155827Y-74403152D02*
X152251065Y-74450771D01*
X152251065Y-74450771D02*
X152298684Y-74546009D01*
X152298684Y-74546009D02*
X152298684Y-74641247D01*
X152298684Y-74641247D02*
X151822494Y-74736485D01*
X152727256Y-75069819D02*
X152727256Y-74403152D01*
X152727256Y-74593628D02*
X152774875Y-74498390D01*
X152774875Y-74498390D02*
X152822494Y-74450771D01*
X152822494Y-74450771D02*
X152917732Y-74403152D01*
X152917732Y-74403152D02*
X153012970Y-74403152D01*
X153251066Y-74403152D02*
X153489161Y-75069819D01*
X153489161Y-75069819D02*
X153727256Y-74403152D01*
X154251066Y-75069819D02*
X154155828Y-75022200D01*
X154155828Y-75022200D02*
X154108209Y-74974580D01*
X154108209Y-74974580D02*
X154060590Y-74879342D01*
X154060590Y-74879342D02*
X154060590Y-74593628D01*
X154060590Y-74593628D02*
X154108209Y-74498390D01*
X154108209Y-74498390D02*
X154155828Y-74450771D01*
X154155828Y-74450771D02*
X154251066Y-74403152D01*
X154251066Y-74403152D02*
X154393923Y-74403152D01*
X154393923Y-74403152D02*
X154489161Y-74450771D01*
X154489161Y-74450771D02*
X154536780Y-74498390D01*
X154536780Y-74498390D02*
X154584399Y-74593628D01*
X154584399Y-74593628D02*
X154584399Y-74879342D01*
X154584399Y-74879342D02*
X154536780Y-74974580D01*
X154536780Y-74974580D02*
X154489161Y-75022200D01*
X154489161Y-75022200D02*
X154393923Y-75069819D01*
X154393923Y-75069819D02*
X154251066Y-75069819D01*
X155679638Y-74403152D02*
X155917733Y-75069819D01*
X155917733Y-75069819D02*
X156155828Y-74403152D01*
X156679638Y-75069819D02*
X156584400Y-75022200D01*
X156584400Y-75022200D02*
X156536781Y-74974580D01*
X156536781Y-74974580D02*
X156489162Y-74879342D01*
X156489162Y-74879342D02*
X156489162Y-74593628D01*
X156489162Y-74593628D02*
X156536781Y-74498390D01*
X156536781Y-74498390D02*
X156584400Y-74450771D01*
X156584400Y-74450771D02*
X156679638Y-74403152D01*
X156679638Y-74403152D02*
X156822495Y-74403152D01*
X156822495Y-74403152D02*
X156917733Y-74450771D01*
X156917733Y-74450771D02*
X156965352Y-74498390D01*
X156965352Y-74498390D02*
X157012971Y-74593628D01*
X157012971Y-74593628D02*
X157012971Y-74879342D01*
X157012971Y-74879342D02*
X156965352Y-74974580D01*
X156965352Y-74974580D02*
X156917733Y-75022200D01*
X156917733Y-75022200D02*
X156822495Y-75069819D01*
X156822495Y-75069819D02*
X156679638Y-75069819D01*
X157584400Y-75069819D02*
X157489162Y-75022200D01*
X157489162Y-75022200D02*
X157441543Y-74926961D01*
X157441543Y-74926961D02*
X157441543Y-74069819D01*
X157822496Y-74403152D02*
X158203448Y-74403152D01*
X157965353Y-74069819D02*
X157965353Y-74926961D01*
X157965353Y-74926961D02*
X158012972Y-75022200D01*
X158012972Y-75022200D02*
X158108210Y-75069819D01*
X158108210Y-75069819D02*
X158203448Y-75069819D01*
X158965353Y-75069819D02*
X158965353Y-74546009D01*
X158965353Y-74546009D02*
X158917734Y-74450771D01*
X158917734Y-74450771D02*
X158822496Y-74403152D01*
X158822496Y-74403152D02*
X158632020Y-74403152D01*
X158632020Y-74403152D02*
X158536782Y-74450771D01*
X158965353Y-75022200D02*
X158870115Y-75069819D01*
X158870115Y-75069819D02*
X158632020Y-75069819D01*
X158632020Y-75069819D02*
X158536782Y-75022200D01*
X158536782Y-75022200D02*
X158489163Y-74926961D01*
X158489163Y-74926961D02*
X158489163Y-74831723D01*
X158489163Y-74831723D02*
X158536782Y-74736485D01*
X158536782Y-74736485D02*
X158632020Y-74688866D01*
X158632020Y-74688866D02*
X158870115Y-74688866D01*
X158870115Y-74688866D02*
X158965353Y-74641247D01*
X159870115Y-74403152D02*
X159870115Y-75212676D01*
X159870115Y-75212676D02*
X159822496Y-75307914D01*
X159822496Y-75307914D02*
X159774877Y-75355533D01*
X159774877Y-75355533D02*
X159679639Y-75403152D01*
X159679639Y-75403152D02*
X159536782Y-75403152D01*
X159536782Y-75403152D02*
X159441544Y-75355533D01*
X159870115Y-75022200D02*
X159774877Y-75069819D01*
X159774877Y-75069819D02*
X159584401Y-75069819D01*
X159584401Y-75069819D02*
X159489163Y-75022200D01*
X159489163Y-75022200D02*
X159441544Y-74974580D01*
X159441544Y-74974580D02*
X159393925Y-74879342D01*
X159393925Y-74879342D02*
X159393925Y-74593628D01*
X159393925Y-74593628D02*
X159441544Y-74498390D01*
X159441544Y-74498390D02*
X159489163Y-74450771D01*
X159489163Y-74450771D02*
X159584401Y-74403152D01*
X159584401Y-74403152D02*
X159774877Y-74403152D01*
X159774877Y-74403152D02*
X159870115Y-74450771D01*
X160727258Y-75022200D02*
X160632020Y-75069819D01*
X160632020Y-75069819D02*
X160441544Y-75069819D01*
X160441544Y-75069819D02*
X160346306Y-75022200D01*
X160346306Y-75022200D02*
X160298687Y-74926961D01*
X160298687Y-74926961D02*
X160298687Y-74546009D01*
X160298687Y-74546009D02*
X160346306Y-74450771D01*
X160346306Y-74450771D02*
X160441544Y-74403152D01*
X160441544Y-74403152D02*
X160632020Y-74403152D01*
X160632020Y-74403152D02*
X160727258Y-74450771D01*
X160727258Y-74450771D02*
X160774877Y-74546009D01*
X160774877Y-74546009D02*
X160774877Y-74641247D01*
X160774877Y-74641247D02*
X160298687Y-74736485D01*
X142809411Y-82297438D02*
X142904649Y-82249819D01*
X142904649Y-82249819D02*
X143047506Y-82249819D01*
X143047506Y-82249819D02*
X143190363Y-82297438D01*
X143190363Y-82297438D02*
X143285601Y-82392676D01*
X143285601Y-82392676D02*
X143333220Y-82487914D01*
X143333220Y-82487914D02*
X143380839Y-82678390D01*
X143380839Y-82678390D02*
X143380839Y-82821247D01*
X143380839Y-82821247D02*
X143333220Y-83011723D01*
X143333220Y-83011723D02*
X143285601Y-83106961D01*
X143285601Y-83106961D02*
X143190363Y-83202200D01*
X143190363Y-83202200D02*
X143047506Y-83249819D01*
X143047506Y-83249819D02*
X142952268Y-83249819D01*
X142952268Y-83249819D02*
X142809411Y-83202200D01*
X142809411Y-83202200D02*
X142761792Y-83154580D01*
X142761792Y-83154580D02*
X142761792Y-82821247D01*
X142761792Y-82821247D02*
X142952268Y-82821247D01*
X142333220Y-83249819D02*
X142333220Y-82249819D01*
X142333220Y-82249819D02*
X141761792Y-83249819D01*
X141761792Y-83249819D02*
X141761792Y-82249819D01*
X141285601Y-83249819D02*
X141285601Y-82249819D01*
X141285601Y-82249819D02*
X141047506Y-82249819D01*
X141047506Y-82249819D02*
X140904649Y-82297438D01*
X140904649Y-82297438D02*
X140809411Y-82392676D01*
X140809411Y-82392676D02*
X140761792Y-82487914D01*
X140761792Y-82487914D02*
X140714173Y-82678390D01*
X140714173Y-82678390D02*
X140714173Y-82821247D01*
X140714173Y-82821247D02*
X140761792Y-83011723D01*
X140761792Y-83011723D02*
X140809411Y-83106961D01*
X140809411Y-83106961D02*
X140904649Y-83202200D01*
X140904649Y-83202200D02*
X141047506Y-83249819D01*
X141047506Y-83249819D02*
X141285601Y-83249819D01*
X142606077Y-85269819D02*
X142272744Y-86269819D01*
X142272744Y-86269819D02*
X141939411Y-85269819D01*
X141196553Y-86304104D02*
X141234649Y-86342200D01*
X141234649Y-86342200D02*
X141348934Y-86380295D01*
X141348934Y-86380295D02*
X141425125Y-86380295D01*
X141425125Y-86380295D02*
X141539411Y-86342200D01*
X141539411Y-86342200D02*
X141615601Y-86266009D01*
X141615601Y-86266009D02*
X141653696Y-86189819D01*
X141653696Y-86189819D02*
X141691792Y-86037438D01*
X141691792Y-86037438D02*
X141691792Y-85923152D01*
X141691792Y-85923152D02*
X141653696Y-85770771D01*
X141653696Y-85770771D02*
X141615601Y-85694580D01*
X141615601Y-85694580D02*
X141539411Y-85618390D01*
X141539411Y-85618390D02*
X141425125Y-85580295D01*
X141425125Y-85580295D02*
X141348934Y-85580295D01*
X141348934Y-85580295D02*
X141234649Y-85618390D01*
X141234649Y-85618390D02*
X141196553Y-85656485D01*
X142091792Y-88869819D02*
X142425125Y-88393628D01*
X142663220Y-88869819D02*
X142663220Y-87869819D01*
X142663220Y-87869819D02*
X142282268Y-87869819D01*
X142282268Y-87869819D02*
X142187030Y-87917438D01*
X142187030Y-87917438D02*
X142139411Y-87965057D01*
X142139411Y-87965057D02*
X142091792Y-88060295D01*
X142091792Y-88060295D02*
X142091792Y-88203152D01*
X142091792Y-88203152D02*
X142139411Y-88298390D01*
X142139411Y-88298390D02*
X142187030Y-88346009D01*
X142187030Y-88346009D02*
X142282268Y-88393628D01*
X142282268Y-88393628D02*
X142663220Y-88393628D01*
X141758458Y-87869819D02*
X141091792Y-88869819D01*
X141091792Y-87869819D02*
X141758458Y-88869819D01*
X142806077Y-90469819D02*
X142234649Y-90469819D01*
X142520363Y-91469819D02*
X142520363Y-90469819D01*
X141996553Y-90469819D02*
X141329887Y-91469819D01*
X141329887Y-90469819D02*
X141996553Y-91469819D01*
X158917438Y-102190588D02*
X158869819Y-102095350D01*
X158869819Y-102095350D02*
X158869819Y-101952493D01*
X158869819Y-101952493D02*
X158917438Y-101809636D01*
X158917438Y-101809636D02*
X159012676Y-101714398D01*
X159012676Y-101714398D02*
X159107914Y-101666779D01*
X159107914Y-101666779D02*
X159298390Y-101619160D01*
X159298390Y-101619160D02*
X159441247Y-101619160D01*
X159441247Y-101619160D02*
X159631723Y-101666779D01*
X159631723Y-101666779D02*
X159726961Y-101714398D01*
X159726961Y-101714398D02*
X159822200Y-101809636D01*
X159822200Y-101809636D02*
X159869819Y-101952493D01*
X159869819Y-101952493D02*
X159869819Y-102047731D01*
X159869819Y-102047731D02*
X159822200Y-102190588D01*
X159822200Y-102190588D02*
X159774580Y-102238207D01*
X159774580Y-102238207D02*
X159441247Y-102238207D01*
X159441247Y-102238207D02*
X159441247Y-102047731D01*
X159869819Y-102666779D02*
X158869819Y-102666779D01*
X158869819Y-102666779D02*
X159869819Y-103238207D01*
X159869819Y-103238207D02*
X158869819Y-103238207D01*
X159869819Y-103714398D02*
X158869819Y-103714398D01*
X158869819Y-103714398D02*
X158869819Y-103952493D01*
X158869819Y-103952493D02*
X158917438Y-104095350D01*
X158917438Y-104095350D02*
X159012676Y-104190588D01*
X159012676Y-104190588D02*
X159107914Y-104238207D01*
X159107914Y-104238207D02*
X159298390Y-104285826D01*
X159298390Y-104285826D02*
X159441247Y-104285826D01*
X159441247Y-104285826D02*
X159631723Y-104238207D01*
X159631723Y-104238207D02*
X159726961Y-104190588D01*
X159726961Y-104190588D02*
X159822200Y-104095350D01*
X159822200Y-104095350D02*
X159869819Y-103952493D01*
X159869819Y-103952493D02*
X159869819Y-103714398D01*
X161869819Y-102393922D02*
X162869819Y-102727255D01*
X162869819Y-102727255D02*
X161869819Y-103060588D01*
X162942200Y-103308207D02*
X162980295Y-103422493D01*
X162980295Y-103422493D02*
X162980295Y-103612969D01*
X162980295Y-103612969D02*
X162942200Y-103689160D01*
X162942200Y-103689160D02*
X162904104Y-103727255D01*
X162904104Y-103727255D02*
X162827914Y-103765350D01*
X162827914Y-103765350D02*
X162751723Y-103765350D01*
X162751723Y-103765350D02*
X162675533Y-103727255D01*
X162675533Y-103727255D02*
X162637438Y-103689160D01*
X162637438Y-103689160D02*
X162599342Y-103612969D01*
X162599342Y-103612969D02*
X162561247Y-103460588D01*
X162561247Y-103460588D02*
X162523152Y-103384398D01*
X162523152Y-103384398D02*
X162485057Y-103346303D01*
X162485057Y-103346303D02*
X162408866Y-103308207D01*
X162408866Y-103308207D02*
X162332676Y-103308207D01*
X162332676Y-103308207D02*
X162256485Y-103346303D01*
X162256485Y-103346303D02*
X162218390Y-103384398D01*
X162218390Y-103384398D02*
X162180295Y-103460588D01*
X162180295Y-103460588D02*
X162180295Y-103651065D01*
X162180295Y-103651065D02*
X162218390Y-103765350D01*
X173539411Y-91082438D02*
X173634649Y-91034819D01*
X173634649Y-91034819D02*
X173777506Y-91034819D01*
X173777506Y-91034819D02*
X173920363Y-91082438D01*
X173920363Y-91082438D02*
X174015601Y-91177676D01*
X174015601Y-91177676D02*
X174063220Y-91272914D01*
X174063220Y-91272914D02*
X174110839Y-91463390D01*
X174110839Y-91463390D02*
X174110839Y-91606247D01*
X174110839Y-91606247D02*
X174063220Y-91796723D01*
X174063220Y-91796723D02*
X174015601Y-91891961D01*
X174015601Y-91891961D02*
X173920363Y-91987200D01*
X173920363Y-91987200D02*
X173777506Y-92034819D01*
X173777506Y-92034819D02*
X173682268Y-92034819D01*
X173682268Y-92034819D02*
X173539411Y-91987200D01*
X173539411Y-91987200D02*
X173491792Y-91939580D01*
X173491792Y-91939580D02*
X173491792Y-91606247D01*
X173491792Y-91606247D02*
X173682268Y-91606247D01*
X173063220Y-92034819D02*
X173063220Y-91034819D01*
X173063220Y-91034819D02*
X172491792Y-92034819D01*
X172491792Y-92034819D02*
X172491792Y-91034819D01*
X172015601Y-92034819D02*
X172015601Y-91034819D01*
X172015601Y-91034819D02*
X171777506Y-91034819D01*
X171777506Y-91034819D02*
X171634649Y-91082438D01*
X171634649Y-91082438D02*
X171539411Y-91177676D01*
X171539411Y-91177676D02*
X171491792Y-91272914D01*
X171491792Y-91272914D02*
X171444173Y-91463390D01*
X171444173Y-91463390D02*
X171444173Y-91606247D01*
X171444173Y-91606247D02*
X171491792Y-91796723D01*
X171491792Y-91796723D02*
X171539411Y-91891961D01*
X171539411Y-91891961D02*
X171634649Y-91987200D01*
X171634649Y-91987200D02*
X171777506Y-92034819D01*
X171777506Y-92034819D02*
X172015601Y-92034819D01*
X173606077Y-88669819D02*
X173272744Y-89669819D01*
X173272744Y-89669819D02*
X172939411Y-88669819D01*
X172691792Y-89742200D02*
X172577506Y-89780295D01*
X172577506Y-89780295D02*
X172387030Y-89780295D01*
X172387030Y-89780295D02*
X172310839Y-89742200D01*
X172310839Y-89742200D02*
X172272744Y-89704104D01*
X172272744Y-89704104D02*
X172234649Y-89627914D01*
X172234649Y-89627914D02*
X172234649Y-89551723D01*
X172234649Y-89551723D02*
X172272744Y-89475533D01*
X172272744Y-89475533D02*
X172310839Y-89437438D01*
X172310839Y-89437438D02*
X172387030Y-89399342D01*
X172387030Y-89399342D02*
X172539411Y-89361247D01*
X172539411Y-89361247D02*
X172615601Y-89323152D01*
X172615601Y-89323152D02*
X172653696Y-89285057D01*
X172653696Y-89285057D02*
X172691792Y-89208866D01*
X172691792Y-89208866D02*
X172691792Y-89132676D01*
X172691792Y-89132676D02*
X172653696Y-89056485D01*
X172653696Y-89056485D02*
X172615601Y-89018390D01*
X172615601Y-89018390D02*
X172539411Y-88980295D01*
X172539411Y-88980295D02*
X172348934Y-88980295D01*
X172348934Y-88980295D02*
X172234649Y-89018390D01*
X172863220Y-86869819D02*
X172863220Y-85869819D01*
X172863220Y-85869819D02*
X172625125Y-85869819D01*
X172625125Y-85869819D02*
X172482268Y-85917438D01*
X172482268Y-85917438D02*
X172387030Y-86012676D01*
X172387030Y-86012676D02*
X172339411Y-86107914D01*
X172339411Y-86107914D02*
X172291792Y-86298390D01*
X172291792Y-86298390D02*
X172291792Y-86441247D01*
X172291792Y-86441247D02*
X172339411Y-86631723D01*
X172339411Y-86631723D02*
X172387030Y-86726961D01*
X172387030Y-86726961D02*
X172482268Y-86822200D01*
X172482268Y-86822200D02*
X172625125Y-86869819D01*
X172625125Y-86869819D02*
X172863220Y-86869819D01*
M02*
