%TF.GenerationSoftware,KiCad,Pcbnew,8.0.1*%
%TF.CreationDate,2024-11-19T12:42:29-08:00*%
%TF.ProjectId,DuplexUARTtoHalf,4475706c-6578-4554-9152-54746f48616c,rev?*%
%TF.SameCoordinates,Original*%
%TF.FileFunction,Copper,L2,Bot*%
%TF.FilePolarity,Positive*%
%FSLAX46Y46*%
G04 Gerber Fmt 4.6, Leading zero omitted, Abs format (unit mm)*
G04 Created by KiCad (PCBNEW 8.0.1) date 2024-11-19 12:42:29*
%MOMM*%
%LPD*%
G01*
G04 APERTURE LIST*
%TA.AperFunction,ComponentPad*%
%ADD10R,1.700000X1.700000*%
%TD*%
%TA.AperFunction,ComponentPad*%
%ADD11O,1.700000X1.700000*%
%TD*%
%TA.AperFunction,ComponentPad*%
%ADD12C,5.600000*%
%TD*%
%TA.AperFunction,ViaPad*%
%ADD13C,0.800000*%
%TD*%
%TA.AperFunction,Conductor*%
%ADD14C,0.500000*%
%TD*%
%TA.AperFunction,Conductor*%
%ADD15C,0.800000*%
%TD*%
%TA.AperFunction,Conductor*%
%ADD16C,1.000000*%
%TD*%
G04 APERTURE END LIST*
D10*
%TO.P,J7,1,Pin_1*%
%TO.N,GND*%
X170000000Y-91500000D03*
D11*
%TO.P,J7,2,Pin_2*%
%TO.N,/V_{SERVO}*%
X170000000Y-88960000D03*
%TO.P,J7,3,Pin_3*%
%TO.N,Net-(J7-Pin_3)*%
X170000000Y-86420000D03*
%TD*%
D10*
%TO.P,J6,1,Pin_1*%
%TO.N,GND*%
X160000000Y-100000000D03*
D11*
%TO.P,J6,2,Pin_2*%
%TO.N,/V_{SERVO}*%
X162540000Y-100000000D03*
%TD*%
D10*
%TO.P,J5,1,Pin_1*%
%TO.N,GND*%
X145000000Y-83380000D03*
D11*
%TO.P,J5,2,Pin_2*%
%TO.N,Net-(J5-Pin_2)*%
X145000000Y-85920000D03*
%TO.P,J5,3,Pin_3*%
%TO.N,Net-(J5-Pin_3)*%
X145000000Y-88460000D03*
%TO.P,J5,4,Pin_4*%
%TO.N,Net-(J5-Pin_4)*%
X145000000Y-91000000D03*
%TD*%
D12*
%TO.P,J4,1,Pin_1*%
%TO.N,GND*%
X170000000Y-75000000D03*
%TD*%
%TO.P,J3,1,Pin_1*%
%TO.N,GND*%
X170000000Y-100000000D03*
%TD*%
%TO.P,J2,1,Pin_1*%
%TO.N,GND*%
X145000000Y-100000000D03*
%TD*%
%TO.P,J1,1,Pin_1*%
%TO.N,GND*%
X145000000Y-75000000D03*
%TD*%
D13*
%TO.N,GND*%
X166800000Y-81200000D03*
X151600000Y-83200000D03*
X155000000Y-83600000D03*
X150800000Y-88600000D03*
%TO.N,+3.3V*%
X161200000Y-89600000D03*
X166200000Y-89000000D03*
%TO.N,/TX_{EN}*%
X164200000Y-85400000D03*
X159600000Y-82400000D03*
%TO.N,GND*%
X156600000Y-87900000D03*
X161575000Y-85625000D03*
X163800000Y-76400000D03*
X161600000Y-78000000D03*
%TD*%
D14*
%TO.N,+3.3V*%
X161800000Y-89000000D02*
X161200000Y-89600000D01*
X166200000Y-89000000D02*
X161800000Y-89000000D01*
%TO.N,/TX_{EN}*%
X162600000Y-85400000D02*
X159600000Y-82400000D01*
X164200000Y-85400000D02*
X162600000Y-85400000D01*
D15*
%TO.N,GND*%
X158200000Y-81400000D02*
X161600000Y-78000000D01*
X158200000Y-83600000D02*
X158200000Y-81400000D01*
X160225000Y-85625000D02*
X158200000Y-83600000D01*
X161575000Y-85625000D02*
X160225000Y-85625000D01*
X159300000Y-87900000D02*
X161575000Y-85625000D01*
X156600000Y-87900000D02*
X159300000Y-87900000D01*
X162200000Y-78000000D02*
X163800000Y-76400000D01*
X161600000Y-78000000D02*
X162200000Y-78000000D01*
D16*
%TO.N,/V_{SERVO}*%
X167400000Y-90357919D02*
X168797919Y-88960000D01*
X168797919Y-88960000D02*
X170000000Y-88960000D01*
X167400000Y-95140000D02*
X167400000Y-90357919D01*
X162540000Y-100000000D02*
X167400000Y-95140000D01*
%TD*%
%TA.AperFunction,Conductor*%
%TO.N,GND*%
G36*
X170000641Y-70000006D02*
G01*
X170213481Y-70002328D01*
X170222915Y-70002792D01*
X170647552Y-70039943D01*
X170658270Y-70041354D01*
X171077393Y-70115256D01*
X171087921Y-70117590D01*
X171499033Y-70227747D01*
X171509322Y-70230992D01*
X171909255Y-70376555D01*
X171919221Y-70380683D01*
X172304942Y-70560547D01*
X172314528Y-70565538D01*
X172683088Y-70778326D01*
X172692207Y-70784135D01*
X173040820Y-71028237D01*
X173049402Y-71034822D01*
X173375420Y-71308383D01*
X173383395Y-71315692D01*
X173684307Y-71616604D01*
X173691616Y-71624579D01*
X173965177Y-71950597D01*
X173971762Y-71959179D01*
X174215864Y-72307792D01*
X174221676Y-72316916D01*
X174434459Y-72685467D01*
X174439454Y-72695062D01*
X174619310Y-73080764D01*
X174623450Y-73090759D01*
X174769003Y-73490664D01*
X174772256Y-73500980D01*
X174882405Y-73912061D01*
X174884746Y-73922623D01*
X174958644Y-74341725D01*
X174960056Y-74352450D01*
X174997206Y-74777073D01*
X174997671Y-74786527D01*
X174999993Y-74999357D01*
X175000000Y-75000710D01*
X175000000Y-99999289D01*
X174999993Y-100000642D01*
X174997671Y-100213472D01*
X174997206Y-100222926D01*
X174960056Y-100647549D01*
X174958644Y-100658274D01*
X174884746Y-101077376D01*
X174882405Y-101087938D01*
X174772256Y-101499019D01*
X174769003Y-101509335D01*
X174623450Y-101909240D01*
X174619310Y-101919235D01*
X174439454Y-102304937D01*
X174434459Y-102314532D01*
X174221676Y-102683083D01*
X174215864Y-102692207D01*
X173971762Y-103040820D01*
X173965177Y-103049402D01*
X173691616Y-103375420D01*
X173684307Y-103383395D01*
X173383395Y-103684307D01*
X173375420Y-103691616D01*
X173049402Y-103965177D01*
X173040820Y-103971762D01*
X172692207Y-104215864D01*
X172683083Y-104221676D01*
X172314532Y-104434459D01*
X172304937Y-104439454D01*
X171919235Y-104619310D01*
X171909240Y-104623450D01*
X171509335Y-104769003D01*
X171499019Y-104772256D01*
X171087938Y-104882405D01*
X171077376Y-104884746D01*
X170658274Y-104958644D01*
X170647549Y-104960056D01*
X170222926Y-104997206D01*
X170213472Y-104997671D01*
X170005455Y-104999940D01*
X170000640Y-104999993D01*
X169999290Y-105000000D01*
X145000710Y-105000000D01*
X144999359Y-104999993D01*
X144994454Y-104999939D01*
X144786527Y-104997671D01*
X144777073Y-104997206D01*
X144352450Y-104960056D01*
X144341725Y-104958644D01*
X143922623Y-104884746D01*
X143912061Y-104882405D01*
X143500980Y-104772256D01*
X143490664Y-104769003D01*
X143090759Y-104623450D01*
X143080764Y-104619310D01*
X142695062Y-104439454D01*
X142685467Y-104434459D01*
X142316916Y-104221676D01*
X142307792Y-104215864D01*
X141959179Y-103971762D01*
X141950597Y-103965177D01*
X141624579Y-103691616D01*
X141616604Y-103684307D01*
X141315692Y-103383395D01*
X141308383Y-103375420D01*
X141034822Y-103049402D01*
X141028237Y-103040820D01*
X140784135Y-102692207D01*
X140778323Y-102683083D01*
X140565540Y-102314532D01*
X140560545Y-102304937D01*
X140380683Y-101919221D01*
X140376555Y-101909255D01*
X140230992Y-101509322D01*
X140227747Y-101499033D01*
X140117590Y-101087921D01*
X140115256Y-101077393D01*
X140041354Y-100658270D01*
X140039943Y-100647549D01*
X140023854Y-100463655D01*
X140002792Y-100222915D01*
X140002328Y-100213471D01*
X140000007Y-100000641D01*
X140000000Y-99999289D01*
X140000000Y-91000000D01*
X143644341Y-91000000D01*
X143664936Y-91235403D01*
X143664938Y-91235413D01*
X143726094Y-91463655D01*
X143726096Y-91463659D01*
X143726097Y-91463663D01*
X143825965Y-91677830D01*
X143825967Y-91677834D01*
X143934281Y-91832521D01*
X143961505Y-91871401D01*
X144128599Y-92038495D01*
X144225384Y-92106265D01*
X144322165Y-92174032D01*
X144322167Y-92174033D01*
X144322170Y-92174035D01*
X144536337Y-92273903D01*
X144764592Y-92335063D01*
X144952918Y-92351539D01*
X144999999Y-92355659D01*
X145000000Y-92355659D01*
X145000001Y-92355659D01*
X145039234Y-92352226D01*
X145235408Y-92335063D01*
X145463663Y-92273903D01*
X145677830Y-92174035D01*
X145871401Y-92038495D01*
X146038495Y-91871401D01*
X146174035Y-91677830D01*
X146273903Y-91463663D01*
X146335063Y-91235408D01*
X146355659Y-91000000D01*
X146335063Y-90764592D01*
X146273903Y-90536337D01*
X146174035Y-90322171D01*
X146169476Y-90315659D01*
X146038494Y-90128597D01*
X145871402Y-89961506D01*
X145871396Y-89961501D01*
X145685842Y-89831575D01*
X145642217Y-89776998D01*
X145635023Y-89707500D01*
X145666546Y-89645145D01*
X145685842Y-89628425D01*
X145726437Y-89600000D01*
X160294540Y-89600000D01*
X160314326Y-89788256D01*
X160314327Y-89788259D01*
X160372818Y-89968277D01*
X160372821Y-89968284D01*
X160467467Y-90132216D01*
X160581961Y-90259374D01*
X160594129Y-90272888D01*
X160747265Y-90384148D01*
X160747270Y-90384151D01*
X160920192Y-90461142D01*
X160920197Y-90461144D01*
X161105354Y-90500500D01*
X161105355Y-90500500D01*
X161294644Y-90500500D01*
X161294646Y-90500500D01*
X161479803Y-90461144D01*
X161652730Y-90384151D01*
X161805871Y-90272888D01*
X161932533Y-90132216D01*
X162027179Y-89968284D01*
X162070102Y-89836182D01*
X162109540Y-89778506D01*
X162173898Y-89751308D01*
X162188033Y-89750500D01*
X165660663Y-89750500D01*
X165727702Y-89770185D01*
X165733548Y-89774182D01*
X165747265Y-89784148D01*
X165747270Y-89784151D01*
X165920192Y-89861142D01*
X165920197Y-89861144D01*
X166105354Y-89900500D01*
X166105355Y-89900500D01*
X166294639Y-89900500D01*
X166294646Y-89900500D01*
X166296450Y-89900116D01*
X166297518Y-89900197D01*
X166301103Y-89899821D01*
X166301171Y-89900476D01*
X166366113Y-89905426D01*
X166421850Y-89947557D01*
X166445962Y-90013135D01*
X166438293Y-90059824D01*
X166439717Y-90060256D01*
X166437947Y-90066090D01*
X166418724Y-90162731D01*
X166399500Y-90259374D01*
X166399500Y-94674217D01*
X166379815Y-94741256D01*
X166363181Y-94761898D01*
X162506970Y-98618108D01*
X162445647Y-98651593D01*
X162430098Y-98653955D01*
X162304596Y-98664936D01*
X162304586Y-98664938D01*
X162076344Y-98726094D01*
X162076335Y-98726098D01*
X161862171Y-98825964D01*
X161862169Y-98825965D01*
X161668597Y-98961505D01*
X161501505Y-99128597D01*
X161365965Y-99322169D01*
X161365964Y-99322171D01*
X161266098Y-99536335D01*
X161266094Y-99536344D01*
X161204938Y-99764586D01*
X161204936Y-99764596D01*
X161184341Y-99999999D01*
X161184341Y-100000000D01*
X161204936Y-100235403D01*
X161204938Y-100235413D01*
X161266094Y-100463655D01*
X161266096Y-100463659D01*
X161266097Y-100463663D01*
X161351845Y-100647549D01*
X161365965Y-100677830D01*
X161365967Y-100677834D01*
X161474281Y-100832521D01*
X161501505Y-100871401D01*
X161668599Y-101038495D01*
X161724127Y-101077376D01*
X161862165Y-101174032D01*
X161862167Y-101174033D01*
X161862170Y-101174035D01*
X162076337Y-101273903D01*
X162304592Y-101335063D01*
X162492918Y-101351539D01*
X162539999Y-101355659D01*
X162540000Y-101355659D01*
X162540001Y-101355659D01*
X162579234Y-101352226D01*
X162775408Y-101335063D01*
X163003663Y-101273903D01*
X163217830Y-101174035D01*
X163411401Y-101038495D01*
X163578495Y-100871401D01*
X163714035Y-100677830D01*
X163813903Y-100463663D01*
X163875063Y-100235408D01*
X163886043Y-100109900D01*
X163911495Y-100044833D01*
X163921882Y-100033036D01*
X168037778Y-95917141D01*
X168037782Y-95917139D01*
X168177139Y-95777782D01*
X168286632Y-95613914D01*
X168362051Y-95431835D01*
X168400500Y-95238541D01*
X168400500Y-90823700D01*
X168420185Y-90756661D01*
X168436815Y-90736023D01*
X169081932Y-90090905D01*
X169143253Y-90057422D01*
X169212944Y-90062406D01*
X169240732Y-90077011D01*
X169322170Y-90134035D01*
X169536337Y-90233903D01*
X169764592Y-90295063D01*
X169952918Y-90311539D01*
X169999999Y-90315659D01*
X170000000Y-90315659D01*
X170000001Y-90315659D01*
X170039234Y-90312226D01*
X170235408Y-90295063D01*
X170463663Y-90233903D01*
X170677830Y-90134035D01*
X170871401Y-89998495D01*
X171038495Y-89831401D01*
X171174035Y-89637830D01*
X171273903Y-89423663D01*
X171335063Y-89195408D01*
X171355659Y-88960000D01*
X171335063Y-88724592D01*
X171273903Y-88496337D01*
X171174035Y-88282171D01*
X171151018Y-88249298D01*
X171038494Y-88088597D01*
X170871402Y-87921506D01*
X170871396Y-87921501D01*
X170685842Y-87791575D01*
X170642217Y-87736998D01*
X170635023Y-87667500D01*
X170666546Y-87605145D01*
X170685842Y-87588425D01*
X170708026Y-87572891D01*
X170871401Y-87458495D01*
X171038495Y-87291401D01*
X171174035Y-87097830D01*
X171273903Y-86883663D01*
X171335063Y-86655408D01*
X171355659Y-86420000D01*
X171335063Y-86184592D01*
X171273903Y-85956337D01*
X171174035Y-85742171D01*
X171066266Y-85588259D01*
X171038494Y-85548597D01*
X170871402Y-85381506D01*
X170871395Y-85381501D01*
X170677834Y-85245967D01*
X170677830Y-85245965D01*
X170604434Y-85211740D01*
X170463663Y-85146097D01*
X170463659Y-85146096D01*
X170463655Y-85146094D01*
X170235413Y-85084938D01*
X170235403Y-85084936D01*
X170000001Y-85064341D01*
X169999999Y-85064341D01*
X169764596Y-85084936D01*
X169764586Y-85084938D01*
X169536344Y-85146094D01*
X169536335Y-85146098D01*
X169322171Y-85245964D01*
X169322169Y-85245965D01*
X169128597Y-85381505D01*
X168961505Y-85548597D01*
X168825965Y-85742169D01*
X168825964Y-85742171D01*
X168726098Y-85956335D01*
X168726094Y-85956344D01*
X168664938Y-86184586D01*
X168664936Y-86184596D01*
X168644341Y-86419999D01*
X168644341Y-86420000D01*
X168664936Y-86655403D01*
X168664938Y-86655413D01*
X168726094Y-86883655D01*
X168726096Y-86883659D01*
X168726097Y-86883663D01*
X168821579Y-87088425D01*
X168825965Y-87097830D01*
X168825967Y-87097834D01*
X168961501Y-87291395D01*
X168961506Y-87291402D01*
X169128597Y-87458493D01*
X169128603Y-87458498D01*
X169314158Y-87588425D01*
X169357783Y-87643002D01*
X169364977Y-87712500D01*
X169333454Y-87774855D01*
X169314158Y-87791575D01*
X169128597Y-87921505D01*
X169126922Y-87923181D01*
X169126000Y-87923684D01*
X169124449Y-87924986D01*
X169124187Y-87924674D01*
X169065599Y-87956666D01*
X169039241Y-87959500D01*
X168699374Y-87959500D01*
X168602731Y-87978724D01*
X168506086Y-87997947D01*
X168506080Y-87997949D01*
X168452753Y-88020037D01*
X168452753Y-88020038D01*
X168407234Y-88038892D01*
X168324008Y-88073366D01*
X168323998Y-88073371D01*
X168160138Y-88182859D01*
X168118412Y-88224586D01*
X168020780Y-88322218D01*
X168020777Y-88322221D01*
X167311879Y-89031118D01*
X167250556Y-89064603D01*
X167180864Y-89059619D01*
X167124931Y-89017747D01*
X167100877Y-88956398D01*
X167097799Y-88927111D01*
X167085674Y-88811744D01*
X167027179Y-88631716D01*
X166932533Y-88467784D01*
X166805871Y-88327112D01*
X166805870Y-88327111D01*
X166652734Y-88215851D01*
X166652729Y-88215848D01*
X166479807Y-88138857D01*
X166479802Y-88138855D01*
X166334001Y-88107865D01*
X166294646Y-88099500D01*
X166105354Y-88099500D01*
X166072897Y-88106398D01*
X165920197Y-88138855D01*
X165920192Y-88138857D01*
X165747270Y-88215848D01*
X165747265Y-88215851D01*
X165733548Y-88225818D01*
X165667742Y-88249298D01*
X165660663Y-88249500D01*
X161726080Y-88249500D01*
X161581092Y-88278340D01*
X161581082Y-88278343D01*
X161444509Y-88334913D01*
X161444507Y-88334914D01*
X161404781Y-88361459D01*
X161321581Y-88417050D01*
X161047229Y-88691402D01*
X160985906Y-88724887D01*
X160985330Y-88725011D01*
X160920196Y-88738856D01*
X160920192Y-88738857D01*
X160747270Y-88815848D01*
X160747265Y-88815851D01*
X160594129Y-88927111D01*
X160467466Y-89067785D01*
X160372821Y-89231715D01*
X160372818Y-89231722D01*
X160314327Y-89411740D01*
X160314326Y-89411744D01*
X160294540Y-89600000D01*
X145726437Y-89600000D01*
X145871401Y-89498495D01*
X146038495Y-89331401D01*
X146174035Y-89137830D01*
X146273903Y-88923663D01*
X146335063Y-88695408D01*
X146355659Y-88460000D01*
X146335063Y-88224592D01*
X146274335Y-87997949D01*
X146273905Y-87996344D01*
X146273904Y-87996343D01*
X146273903Y-87996337D01*
X146174035Y-87782171D01*
X146168913Y-87774855D01*
X146038494Y-87588597D01*
X145871402Y-87421506D01*
X145871396Y-87421501D01*
X145685842Y-87291575D01*
X145642217Y-87236998D01*
X145635023Y-87167500D01*
X145666546Y-87105145D01*
X145685842Y-87088425D01*
X145708026Y-87072891D01*
X145871401Y-86958495D01*
X146038495Y-86791401D01*
X146174035Y-86597830D01*
X146273903Y-86383663D01*
X146335063Y-86155408D01*
X146355659Y-85920000D01*
X146335063Y-85684592D01*
X146273903Y-85456337D01*
X146174035Y-85242171D01*
X146106765Y-85146098D01*
X146038494Y-85048597D01*
X145871402Y-84881506D01*
X145871395Y-84881501D01*
X145677834Y-84745967D01*
X145677830Y-84745965D01*
X145637400Y-84727112D01*
X145463663Y-84646097D01*
X145463659Y-84646096D01*
X145463655Y-84646094D01*
X145235413Y-84584938D01*
X145235403Y-84584936D01*
X145000001Y-84564341D01*
X144999999Y-84564341D01*
X144764596Y-84584936D01*
X144764586Y-84584938D01*
X144536344Y-84646094D01*
X144536337Y-84646096D01*
X144536337Y-84646097D01*
X144529039Y-84649500D01*
X144322171Y-84745964D01*
X144322169Y-84745965D01*
X144128597Y-84881505D01*
X143961505Y-85048597D01*
X143825965Y-85242169D01*
X143825964Y-85242171D01*
X143726098Y-85456335D01*
X143726094Y-85456344D01*
X143664938Y-85684586D01*
X143664936Y-85684596D01*
X143644341Y-85919999D01*
X143644341Y-85920000D01*
X143664936Y-86155403D01*
X143664938Y-86155413D01*
X143726094Y-86383655D01*
X143726096Y-86383659D01*
X143726097Y-86383663D01*
X143825965Y-86597830D01*
X143825967Y-86597834D01*
X143961501Y-86791395D01*
X143961506Y-86791402D01*
X144128597Y-86958493D01*
X144128603Y-86958498D01*
X144314158Y-87088425D01*
X144357783Y-87143002D01*
X144364977Y-87212500D01*
X144333454Y-87274855D01*
X144314158Y-87291575D01*
X144128597Y-87421505D01*
X143961505Y-87588597D01*
X143825965Y-87782169D01*
X143825964Y-87782171D01*
X143726098Y-87996335D01*
X143726094Y-87996344D01*
X143664938Y-88224586D01*
X143664936Y-88224596D01*
X143644341Y-88459999D01*
X143644341Y-88460000D01*
X143664936Y-88695403D01*
X143664938Y-88695413D01*
X143726094Y-88923655D01*
X143726096Y-88923659D01*
X143726097Y-88923663D01*
X143825965Y-89137830D01*
X143825967Y-89137834D01*
X143961501Y-89331395D01*
X143961506Y-89331402D01*
X144128597Y-89498493D01*
X144128603Y-89498498D01*
X144314158Y-89628425D01*
X144357783Y-89683002D01*
X144364977Y-89752500D01*
X144333454Y-89814855D01*
X144314158Y-89831575D01*
X144128597Y-89961505D01*
X143961505Y-90128597D01*
X143825965Y-90322169D01*
X143825964Y-90322171D01*
X143726098Y-90536335D01*
X143726094Y-90536344D01*
X143664938Y-90764586D01*
X143664936Y-90764596D01*
X143644341Y-90999999D01*
X143644341Y-91000000D01*
X140000000Y-91000000D01*
X140000000Y-82400000D01*
X158694540Y-82400000D01*
X158714326Y-82588256D01*
X158714327Y-82588259D01*
X158772818Y-82768277D01*
X158772821Y-82768284D01*
X158867467Y-82932216D01*
X158994129Y-83072888D01*
X159147265Y-83184148D01*
X159147270Y-83184151D01*
X159320191Y-83261142D01*
X159320193Y-83261142D01*
X159320197Y-83261144D01*
X159385329Y-83274987D01*
X159446809Y-83308178D01*
X159447228Y-83308596D01*
X160751814Y-84613181D01*
X162017049Y-85878416D01*
X162121584Y-85982951D01*
X162121587Y-85982953D01*
X162121588Y-85982954D01*
X162244494Y-86065077D01*
X162244496Y-86065078D01*
X162244505Y-86065084D01*
X162263346Y-86072888D01*
X162381088Y-86121659D01*
X162497241Y-86144763D01*
X162516468Y-86148587D01*
X162526081Y-86150500D01*
X162526082Y-86150500D01*
X162526083Y-86150500D01*
X162673918Y-86150500D01*
X163660663Y-86150500D01*
X163727702Y-86170185D01*
X163733548Y-86174182D01*
X163747265Y-86184148D01*
X163747270Y-86184151D01*
X163920192Y-86261142D01*
X163920197Y-86261144D01*
X164105354Y-86300500D01*
X164105355Y-86300500D01*
X164294644Y-86300500D01*
X164294646Y-86300500D01*
X164479803Y-86261144D01*
X164652730Y-86184151D01*
X164805871Y-86072888D01*
X164932533Y-85932216D01*
X165027179Y-85768284D01*
X165085674Y-85588256D01*
X165105460Y-85400000D01*
X165085674Y-85211744D01*
X165027179Y-85031716D01*
X164932533Y-84867784D01*
X164805871Y-84727112D01*
X164805870Y-84727111D01*
X164652734Y-84615851D01*
X164652729Y-84615848D01*
X164479807Y-84538857D01*
X164479802Y-84538855D01*
X164334001Y-84507865D01*
X164294646Y-84499500D01*
X164105354Y-84499500D01*
X164072897Y-84506398D01*
X163920197Y-84538855D01*
X163920192Y-84538857D01*
X163747270Y-84615848D01*
X163747265Y-84615851D01*
X163733548Y-84625818D01*
X163667742Y-84649298D01*
X163660663Y-84649500D01*
X162962229Y-84649500D01*
X162895190Y-84629815D01*
X162874548Y-84613181D01*
X160512770Y-82251402D01*
X160482521Y-82202041D01*
X160427179Y-82031716D01*
X160332533Y-81867784D01*
X160205871Y-81727112D01*
X160205870Y-81727111D01*
X160052734Y-81615851D01*
X160052729Y-81615848D01*
X159879807Y-81538857D01*
X159879802Y-81538855D01*
X159734001Y-81507865D01*
X159694646Y-81499500D01*
X159505354Y-81499500D01*
X159472897Y-81506398D01*
X159320197Y-81538855D01*
X159320192Y-81538857D01*
X159147270Y-81615848D01*
X159147265Y-81615851D01*
X158994129Y-81727111D01*
X158867466Y-81867785D01*
X158772821Y-82031715D01*
X158772818Y-82031722D01*
X158717479Y-82202039D01*
X158714326Y-82211744D01*
X158694540Y-82400000D01*
X140000000Y-82400000D01*
X140000000Y-75000710D01*
X140000007Y-74999358D01*
X140002328Y-74786528D01*
X140002793Y-74777073D01*
X140039943Y-74352450D01*
X140041355Y-74341725D01*
X140115257Y-73922602D01*
X140117589Y-73912083D01*
X140227749Y-73500959D01*
X140230989Y-73490683D01*
X140376558Y-73090736D01*
X140380679Y-73080786D01*
X140560552Y-72695047D01*
X140565532Y-72685480D01*
X140778332Y-72316900D01*
X140784125Y-72307806D01*
X141028246Y-71959165D01*
X141034812Y-71950609D01*
X141308394Y-71624566D01*
X141315681Y-71616615D01*
X141616615Y-71315681D01*
X141624566Y-71308394D01*
X141950609Y-71034812D01*
X141959165Y-71028246D01*
X142307806Y-70784125D01*
X142316900Y-70778332D01*
X142685480Y-70565532D01*
X142695047Y-70560552D01*
X143080786Y-70380679D01*
X143090736Y-70376558D01*
X143490683Y-70230989D01*
X143500959Y-70227749D01*
X143912083Y-70117589D01*
X143922602Y-70115257D01*
X144341732Y-70041353D01*
X144352444Y-70039943D01*
X144777085Y-70002792D01*
X144786517Y-70002328D01*
X144999358Y-70000006D01*
X145000710Y-70000000D01*
X169999290Y-70000000D01*
X170000641Y-70000006D01*
G37*
%TD.AperFunction*%
%TD*%
M02*
