M48
; DRILL file {KiCad 8.0.1} date 2024-11-19T12:42:28-0800
; FORMAT={-:-/ absolute / inch / decimal}
; #@! TF.CreationDate,2024-11-19T12:42:28-08:00
; #@! TF.GenerationSoftware,Kicad,Pcbnew,8.0.1
; #@! TF.FileFunction,Plated,1,2,PTH
FMAT,2
INCH
; #@! TA.AperFunction,Plated,PTH,ViaDrill
T1C0.0157
; #@! TA.AperFunction,Plated,PTH,ComponentDrill
T2C0.0394
; #@! TA.AperFunction,Plated,PTH,ComponentDrill
T3C0.1260
%
G90
G05
T1
X5.937Y-3.4882
X5.9685Y-3.2756
X6.1024Y-3.2913
X6.1654Y-3.4606
X6.2835Y-3.2441
X6.3465Y-3.5276
X6.3612Y-3.3711
X6.3622Y-3.0709
X6.4488Y-3.0079
X6.4646Y-3.3622
X6.5433Y-3.5039
X6.5669Y-3.1969
T2
X5.7087Y-3.2827
X5.7087Y-3.3827
X5.7087Y-3.4827
X5.7087Y-3.5827
X6.2992Y-3.937
X6.3992Y-3.937
X6.6929Y-3.4024
X6.6929Y-3.5024
X6.6929Y-3.6024
T3
X5.7087Y-2.9528
X5.7087Y-3.937
X6.6929Y-2.9528
X6.6929Y-3.937
M30
